<?xml version="1.0" standalone="no"?>
<!DOCTYPE svg PUBLIC "-//W3C//DTD SVG 20010904//EN"
 "http://www.w3.org/TR/2001/REC-SVG-20010904/DTD/svg10.dtd">
<svg version="1.0" xmlns="http://www.w3.org/2000/svg"
 width="785.000000pt" height="784.000000pt" viewBox="0 0 785.000000 784.000000"
 preserveAspectRatio="xMidYMid meet">

<g transform="translate(0.000000,784.000000) scale(0.100000,-0.100000)"
fill="#000000" stroke="none">
<path d="M2232 6438 c3 -1226 3 -1234 25 -1323 70 -291 196 -526 424 -792 260
-302 710 -638 1150 -859 60 -30 114 -54 120 -54 22 0 286 139 417 219 567 348
959 736 1157 1146 66 138 98 232 124 368 21 106 21 134 21 1318 l0 1209 -1720
0 -1721 0 3 -1232z m3398 45 c0 -747 -4 -1169 -11 -1228 -42 -352 -218 -686
-532 -1004 -197 -199 -337 -313 -610 -495 -96 -64 -177 -116 -180 -116 -3 0
-30 -14 -59 -31 -29 -17 -106 -58 -170 -91 l-117 -59 -103 51 c-390 196 -771
470 -1038 746 -287 297 -461 609 -515 919 -13 78 -15 252 -15 1268 l0 1177
1675 0 1675 0 0 -1137z"/>
<path d="M4090 6722 l0 -787 93 -62 c118 -78 679 -448 1002 -661 137 -90 255
-166 262 -169 14 -6 29 47 49 167 11 69 14 297 14 1193 l0 1107 -710 0 -710 0
0 -788z m535 201 c29 -11 71 -39 104 -69 l54 -50 -53 -55 c-71 -73 -85 -106
-64 -157 16 -43 47 -62 95 -62 24 0 45 14 93 60 35 33 67 60 72 60 13 0 240
-231 247 -251 8 -23 -20 -59 -45 -59 -13 0 -52 30 -99 76 -43 41 -83 73 -89
69 -15 -9 1 -32 74 -105 37 -36 66 -73 66 -84 0 -24 -28 -56 -48 -56 -8 0 -49
34 -91 75 -71 68 -101 89 -101 67 0 -5 34 -43 75 -85 41 -43 75 -83 75 -90 0
-23 -31 -57 -52 -57 -11 0 -51 30 -92 70 -40 39 -80 70 -90 70 -9 0 -21 12
-27 27 -15 40 -39 63 -66 63 -16 0 -23 6 -23 19 0 31 -38 70 -75 77 -39 7 -59
-3 -111 -55 l-32 -31 -64 68 c-50 53 -68 81 -82 126 -68 217 135 414 349 339z
m595 -19 c88 -48 139 -130 140 -227 0 -86 -18 -134 -78 -198 l-55 -60 -137
135 c-101 101 -143 136 -161 136 -15 -1 -47 -22 -87 -60 -39 -36 -73 -60 -86
-60 -28 0 -66 35 -66 61 0 23 195 228 249 261 91 57 191 61 281 12z m-638
-481 c26 -23 22 -46 -11 -82 -33 -35 -56 -39 -83 -14 -26 23 -22 50 11 84 33
33 56 36 83 12z m95 -95 c24 -31 22 -48 -11 -83 -40 -42 -49 -43 -81 -10 -32
31 -31 38 5 75 31 31 70 39 87 18z m95 -95 c25 -22 23 -46 -8 -83 -33 -39 -71
-38 -94 2 -14 26 -13 29 20 63 38 39 55 43 82 18z m103 -107 c18 -27 12 -48
-23 -79 -26 -24 -70 -19 -89 10 -13 19 -11 24 17 57 38 43 72 47 95 12z"/>
<path d="M3724 5548 c-126 -83 -312 -206 -414 -273 -102 -67 -306 -202 -454
-300 -149 -97 -276 -179 -283 -182 -22 -9 -15 -27 52 -128 95 -142 162 -224
304 -365 241 -240 561 -471 904 -655 78 -41 114 -55 131 -51 37 9 314 166 444
252 289 190 565 429 740 642 l44 52 -114 0 c-62 0 -163 -3 -224 -6 l-111 -7
20 -41 c12 -24 21 -62 21 -94 1 -49 -2 -56 -34 -83 -19 -17 -63 -44 -98 -61
-54 -26 -71 -30 -125 -26 -50 3 -71 10 -109 36 -71 49 -93 86 -93 155 1 31 0
57 -2 57 -4 0 -169 -78 -344 -163 -185 -90 -259 -117 -318 -117 -19 0 -60 -5
-90 -11 -46 -10 -70 -9 -131 4 -64 13 -77 13 -86 1 -16 -21 -31 -17 -50 11
-21 33 -12 68 22 84 29 13 40 7 46 -24 2 -13 15 -22 42 -27 21 -5 41 -6 44 -3
9 9 -20 35 -40 35 -25 0 -34 28 -15 47 22 22 70 10 62 -16 -4 -15 6 -21 67
-40 l73 -21 63 21 c65 22 71 33 23 42 -16 4 -70 29 -119 56 -60 33 -97 48
-111 44 -25 -6 -29 18 -5 37 8 8 14 25 12 39 -2 20 -9 26 -28 26 -23 0 -26 5
-21 35 2 17 36 11 54 -10 10 -12 29 -20 47 -20 23 0 30 -5 30 -19 0 -35 139
-71 277 -71 104 0 197 25 328 86 122 59 113 68 -64 65 -154 -3 -290 13 -342
39 -21 11 -69 51 -108 89 -50 50 -79 70 -105 75 -49 9 -63 37 -39 79 25 42 58
50 51 13 -5 -22 8 -39 84 -113 49 -48 96 -92 105 -97 59 -32 233 -53 356 -42
76 8 76 8 62 30 -30 45 -28 163 3 174 6 2 18 -12 26 -32 8 -19 27 -41 43 -49
23 -12 229 -57 259 -57 5 0 -14 13 -41 29 -60 34 -132 109 -141 147 -17 66 43
83 100 29 20 -19 57 -47 82 -61 49 -29 183 -78 191 -70 3 2 -2 15 -11 28 -19
27 -21 84 -3 91 34 13 107 -66 107 -116 0 -38 -60 -97 -98 -97 -15 0 -22 -4
-16 -9 13 -12 278 -31 442 -31 l140 0 24 33 c13 17 38 55 55 83 l31 52 -141
93 c-188 124 -642 423 -952 627 -137 91 -262 173 -276 183 l-26 18 -229 -151z"/>
<path d="M4175 4457 c-183 -89 -331 -166 -318 -166 44 -2 458 192 447 210 -8
14 -12 13 -129 -44z"/>
<path d="M4464 4480 c-22 -15 -49 -28 -59 -27 -13 1 -23 -9 -34 -37 -14 -37
-14 -39 9 -56 30 -22 88 -40 154 -47 48 -5 54 -3 113 40 77 57 90 78 63 102
-19 17 -27 17 -101 6 -90 -14 -117 -6 -98 30 13 26 1 23 -47 -11z"/>
<path d="M3490 4443 c0 -35 130 -101 243 -123 66 -13 69 -13 120 13 l52 26
-60 -6 c-85 -8 -145 9 -342 94 -7 3 -13 1 -13 -4z"/>
<path d="M3775 4260 c-3 -6 1 -7 9 -4 18 7 21 14 7 14 -6 0 -13 -4 -16 -10z"/>
<path d="M1396 5182 c40 -294 68 -389 207 -709 20 -46 33 -83 29 -83 -4 0 -27
34 -51 75 -59 100 -130 178 -186 204 -31 15 -79 24 -143 30 -53 4 -105 11
-114 15 -30 14 -20 -12 23 -59 34 -37 55 -49 121 -70 43 -14 86 -25 94 -25 28
0 91 -39 125 -77 19 -20 53 -55 76 -77 36 -36 93 -116 93 -131 0 -3 -15 -5
-33 -5 -65 0 -92 -73 -41 -107 25 -16 29 -16 54 -1 16 9 31 14 34 10 3 -3 6
-26 6 -51 0 -53 38 -202 74 -291 36 -87 12 -70 -42 30 -73 138 -142 251 -194
320 -50 65 -267 283 -300 301 -31 17 -21 -19 26 -100 27 -45 56 -115 72 -171
34 -119 52 -156 125 -250 58 -75 131 -145 242 -230 31 -25 57 -48 57 -51 0
-14 -58 15 -116 57 -109 79 -189 123 -249 139 -82 21 -116 19 -187 -11 -51
-21 -71 -25 -117 -20 -58 7 -94 -5 -76 -23 6 -5 58 -35 117 -65 148 -77 252
-106 387 -107 205 -2 282 -25 164 -49 -99 -20 -157 -70 -212 -179 -16 -31 -36
-63 -45 -70 -23 -20 -19 -31 11 -31 26 0 57 27 179 162 62 68 107 83 150 49
36 -28 69 -27 100 4 l26 26 176 -59 c97 -33 199 -66 227 -74 l49 -14 -46 -26
c-41 -23 -49 -24 -65 -12 -26 19 -60 17 -83 -6 -26 -26 -25 -53 3 -86 42 -48
111 -27 109 33 0 24 8 34 46 58 29 19 59 29 82 29 52 0 130 -14 130 -23 0 -4
-15 -14 -33 -23 -110 -52 -257 -223 -349 -403 -56 -110 -62 -126 -66 -199 -3
-57 -2 -77 7 -72 6 4 11 14 11 22 0 32 61 134 94 156 50 34 78 73 136 186 65
125 141 202 252 256 99 48 170 65 325 78 113 9 135 9 155 -4 13 -8 36 -18 53
-22 16 -4 131 -56 255 -116 189 -91 352 -162 444 -194 39 -13 -4 -31 -84 -34
-145 -7 -310 27 -429 87 -23 12 -45 20 -47 18 -3 -3 -6 -17 -7 -32 -2 -25 5
-32 63 -61 36 -18 104 -43 153 -55 48 -12 87 -26 87 -30 0 -12 -123 -22 -220
-17 -49 2 -87 1 -84 -4 3 -4 25 -21 49 -38 39 -27 52 -30 117 -30 90 0 174 19
283 65 46 19 127 44 181 55 l97 20 97 -20 c54 -11 130 -34 170 -51 102 -43
212 -69 292 -69 73 0 109 13 145 52 l22 23 -144 0 c-174 0 -202 13 -88 39 43
10 113 34 156 54 74 34 77 36 77 69 0 31 -2 34 -22 28 -13 -4 -32 -13 -43 -20
-41 -25 -164 -64 -239 -74 -140 -20 -300 -9 -270 18 5 4 62 29 126 54 64 26
221 96 347 157 127 60 234 110 239 110 5 0 24 7 42 16 62 32 298 2 445 -55
139 -54 221 -133 302 -294 34 -68 61 -106 113 -157 65 -63 110 -135 110 -178
0 -15 2 -15 10 -2 14 21 12 77 -4 135 -16 57 -105 227 -154 295 -54 75 -172
189 -235 228 l-60 37 34 6 c103 20 115 19 170 -9 47 -23 54 -31 57 -59 9 -89
132 -86 132 3 0 56 -49 82 -95 50 -18 -12 -25 -11 -64 12 -24 14 -40 27 -35
29 5 1 59 18 119 37 61 18 157 50 214 70 l104 37 27 -26 c31 -30 69 -32 98 -5
47 44 79 27 207 -106 79 -82 106 -104 127 -104 l27 0 -28 43 c-16 23 -36 58
-45 77 -41 88 -107 140 -206 161 -31 7 -50 16 -50 25 0 8 6 14 13 15 6 0 89 4
182 8 130 7 185 13 233 29 62 21 254 113 280 134 26 22 5 33 -69 34 -54 0 -86
7 -119 22 -101 48 -219 17 -386 -104 -142 -101 -214 -124 -91 -28 211 165 307
290 351 454 13 48 47 132 75 185 84 160 70 157 -118 -32 -157 -158 -212 -233
-316 -428 -70 -132 -88 -161 -93 -147 -2 6 4 24 12 40 26 51 76 233 83 304 3
37 8 68 11 68 3 0 14 -8 24 -17 14 -13 25 -15 46 -7 38 13 51 54 28 89 -15 22
-24 26 -52 23 -38 -5 -41 3 -16 49 26 48 187 211 224 226 18 7 60 19 93 26
101 22 171 65 202 125 14 27 14 28 -3 21 -11 -4 -63 -11 -116 -16 -98 -8 -161
-28 -203 -66 -33 -29 -120 -147 -151 -202 -50 -93 -37 -44 30 114 37 86 76
181 87 213 29 84 67 245 78 337 6 44 13 103 17 130 6 44 5 48 -8 38 -8 -7 -27
-44 -42 -83 -15 -38 -48 -96 -73 -127 -57 -73 -67 -94 -98 -192 -26 -82 -49
-217 -61 -359 -4 -45 -11 -85 -17 -89 -6 -4 -7 56 -3 173 9 228 -4 314 -62
412 -22 37 -43 81 -46 97 -16 72 -46 114 -46 63 3 -161 22 -356 44 -443 14
-55 30 -109 35 -120 18 -35 62 -215 58 -233 -4 -20 -55 134 -64 196 -6 46 -10
50 -28 26 -11 -16 -14 -15 -41 5 -28 21 -165 74 -172 66 -2 -2 4 -17 12 -34
17 -32 54 -63 129 -106 45 -26 47 -29 47 -73 1 -26 7 -81 15 -122 50 -270 50
-258 26 -366 -11 -55 -21 -112 -21 -127 0 -25 -3 -27 -37 -27 -42 -1 -64 -13
-81 -47 -15 -28 -15 -58 0 -83 11 -17 8 -24 -22 -56 -54 -56 -138 -108 -215
-132 -90 -29 -99 -28 -70 4 33 35 32 78 0 110 -14 14 -32 23 -40 20 -28 -10
-24 12 8 40 163 146 274 229 317 239 57 12 20 28 -54 23 -102 -8 -149 -29
-172 -81 -55 -122 -157 -237 -284 -322 -78 -52 -159 -90 -168 -79 -4 3 -2 9 5
11 6 2 50 27 99 56 115 69 260 209 302 292 56 113 122 335 121 405 0 19 -6 13
-26 -30 -18 -37 -54 -81 -109 -135 -78 -75 -85 -86 -120 -175 -49 -128 -78
-184 -132 -255 -42 -57 -123 -130 -167 -152 -20 -11 -85 -6 -85 6 0 3 39 26
86 51 133 69 215 169 245 297 15 65 12 227 -5 288 l-14 50 0 -65 c1 -57 -4
-73 -37 -133 -35 -64 -38 -74 -39 -161 -2 -76 -6 -97 -23 -122 -65 -90 -234
-205 -300 -203 l-28 0 25 17 c88 60 132 117 174 229 15 40 39 89 52 109 14 20
23 38 20 41 -7 7 -134 -127 -184 -194 -31 -42 -76 -84 -139 -130 -124 -89
-123 -89 -239 -114 -221 -47 -335 -89 -605 -224 -105 -52 -197 -95 -205 -95
-8 0 -90 38 -182 84 -286 143 -372 175 -609 230 l-142 33 -108 81 c-74 55
-122 100 -154 144 -50 67 -176 194 -185 185 -3 -2 6 -17 20 -31 13 -15 37 -61
52 -103 38 -105 94 -188 149 -221 90 -55 34 -59 -68 -5 -69 37 -186 135 -210
177 -6 12 -14 66 -17 122 -5 94 -8 105 -40 155 -31 49 -34 61 -33 122 1 37 -2
65 -6 62 -5 -2 -14 -46 -21 -97 -25 -173 16 -329 114 -429 47 -48 142 -113
192 -131 44 -16 43 -25 -3 -30 -31 -4 -48 1 -92 30 -102 67 -192 203 -266 402
-25 66 -38 84 -111 155 -57 55 -91 97 -108 135 -21 45 -26 50 -26 28 0 -76 54
-262 111 -384 52 -109 232 -280 362 -343 26 -13 49 -27 53 -32 23 -39 -158 60
-249 136 -82 68 -145 146 -189 236 -28 56 -39 69 -73 83 -49 21 -179 33 -189
18 -3 -6 6 -13 21 -17 16 -3 62 -31 105 -63 88 -66 253 -211 241 -213 -24 -4
-30 -5 -49 -12 -12 -4 -27 -21 -34 -36 -9 -24 -9 -35 5 -60 9 -18 23 -35 30
-38 8 -3 13 -8 10 -12 -6 -11 -172 45 -206 70 -16 11 -34 17 -39 14 -6 -4 -30
1 -54 10 -39 15 -48 25 -74 78 -2 4 2 7 10 7 7 0 33 -21 57 -45 25 -25 50 -45
55 -45 6 0 -11 22 -38 49 -47 47 -48 50 -37 83 22 65 -17 118 -87 118 -27 0
-27 2 -51 120 -26 131 -25 195 6 320 8 36 18 105 22 155 l6 89 74 46 c63 39
121 97 121 121 0 13 -135 -34 -167 -57 -38 -29 -38 -29 -62 -5 -19 19 -19 20
4 100 29 100 45 234 45 383 0 121 -8 129 -35 34 -9 -33 -29 -78 -45 -100 -59
-87 -65 -120 -65 -363 -1 -122 -3 -224 -6 -227 -3 -3 -13 63 -22 148 -27 244
-72 394 -143 477 -39 45 -67 93 -103 182 -11 26 -24 47 -29 47 -4 0 -3 -40 4
-88z m379 -624 c-13 -63 -48 -183 -57 -192 -16 -19 -8 34 19 129 15 52 31 95
36 95 5 0 6 -15 2 -32z m4240 -948 c-18 -34 -47 -56 -90 -66 -28 -6 -26 -3 25
44 64 60 89 68 65 22z m-3519 -147 c30 -19 -5 -16 -52 3 -62 26 -94 53 -94 79
0 23 3 22 63 -23 35 -26 72 -52 83 -59z m3060 73 c-5 -19 -23 -34 -67 -57 -63
-31 -123 -38 -64 -7 17 9 53 34 80 56 28 22 52 39 54 37 2 -2 1 -16 -3 -29z
m-3145 -71 c29 -13 77 -27 106 -31 29 -3 56 -11 60 -17 10 -17 -217 6 -286 29
-10 3 -3 11 20 23 45 24 39 25 100 -4z m3183 6 l38 -20 -40 -11 c-89 -24 -279
-39 -268 -21 3 4 32 11 63 15 32 4 81 17 108 30 62 30 54 30 99 7z m-2301
-112 c119 -16 222 -56 402 -156 192 -107 220 -126 199 -133 -21 -8 -98 18
-294 100 -69 29 -163 68 -210 86 -196 79 -288 133 -202 119 15 -3 62 -10 105
-16z m1457 12 c0 -15 -83 -53 -345 -160 -137 -56 -265 -109 -284 -117 -42 -19
-126 -31 -118 -17 8 13 137 88 280 163 143 74 241 109 358 125 52 7 97 13 102
14 4 0 7 -3 7 -8z"/>
<path d="M1396 4468 c-9 -12 -16 -25 -16 -28 0 -3 29 -5 64 -5 69 0 73 11 15
41 -37 19 -45 18 -63 -8z"/>
<path d="M6433 4468 c-18 -11 -33 -23 -33 -26 0 -4 29 -7 64 -7 l64 0 -14 28
c-17 32 -37 33 -81 5z"/>
<path d="M1824 4188 c-16 -31 -34 -220 -20 -207 3 3 13 31 21 61 15 58 45 118
78 156 l20 22 -41 0 c-37 0 -43 -4 -58 -32z"/>
<path d="M6003 4196 c37 -34 77 -119 84 -178 5 -39 8 -46 16 -33 13 23 -1 162
-20 203 -14 29 -19 32 -61 32 l-45 0 26 -24z"/>
<path d="M2955 3289 c-49 -23 -118 -25 -135 -4 -14 17 -61 20 -77 4 -8 -8 -17
-8 -31 0 -54 29 -108 -15 -98 -79 11 -71 87 -95 127 -40 12 16 26 27 31 24 16
-10 49 8 58 32 7 18 17 24 40 24 33 0 87 20 122 45 30 20 12 18 -37 -6z"/>
<path d="M4920 3295 c0 -11 85 -45 111 -45 16 0 33 -11 48 -31 18 -24 28 -29
46 -25 19 5 27 1 37 -21 10 -22 21 -29 50 -31 56 -5 85 33 79 103 -4 43 -71
71 -99 43 -10 -10 -17 -10 -32 0 -27 17 -48 15 -76 -7 -19 -15 -31 -17 -69
-10 -25 5 -54 13 -64 19 -22 11 -31 13 -31 5z"/>
<path d="M2830 2415 l0 -85 -185 0 c-117 0 -185 -4 -185 -10 0 -6 68 -10 184
-10 l185 0 3 -101 c2 -55 1 -103 -1 -105 -2 -2 -74 -4 -158 -4 -100 0 -152 -3
-148 -10 8 -13 704 -13 725 0 8 5 12 11 10 13 -3 2 -24 18 -46 35 -23 18 -46
32 -52 32 -5 0 -22 -16 -37 -35 l-27 -36 -81 3 -82 3 0 100 0 100 185 5 c132
4 185 8 185 17 0 11 -78 73 -92 73 -5 0 -19 -16 -32 -35 l-24 -36 -111 3 -111
3 -3 62 c-3 54 0 63 18 73 37 20 21 30 -50 30 l-70 0 0 -85z"/>
<path d="M3703 2451 c-45 -27 -116 -61 -158 -77 -41 -16 -75 -32 -75 -36 0
-10 13 -10 92 6 37 7 70 11 73 8 3 -3 5 -41 5 -84 l0 -78 -86 0 c-54 0 -83 -4
-79 -10 3 -5 35 -10 71 -10 52 0 64 -3 64 -16 0 -32 -72 -230 -106 -293 -19
-35 -32 -66 -29 -69 9 -9 93 78 128 133 l32 50 3 -168 2 -167 25 0 c13 0 35 4
49 10 l26 10 0 197 0 198 20 -25 c11 -14 28 -47 39 -75 15 -40 24 -51 44 -53
19 -2 30 4 42 22 16 24 16 28 -2 58 -13 22 -39 43 -81 63 l-61 30 -1 48 0 47
74 0 c92 0 103 12 50 57 l-39 33 -28 -35 c-48 -58 -57 -49 -57 60 l0 94 52 16
c28 8 64 15 80 15 15 0 28 3 28 8 -1 9 -96 82 -107 81 -4 0 -45 -22 -90 -48z"/>
<path d="M4861 2493 c1 -5 1 -24 0 -43 l-1 -35 -125 3 c-85 3 -125 0 -125 -7
0 -7 42 -11 124 -11 l124 0 4 -39 c3 -33 0 -41 -17 -45 -11 -3 -99 -7 -195 -8
l-175 -2 194 -6 195 -5 -1 -32 c-1 -18 -2 -37 -2 -43 -1 -6 -52 -10 -132 -10
-84 0 -128 -4 -124 -10 4 -6 58 -10 129 -10 l124 0 4 -28 c7 -52 7 -52 -154
-52 -83 0 -149 -3 -145 -6 3 -3 64 -5 136 -5 72 1 139 -2 149 -8 16 -8 20 -33
13 -73 0 -5 -85 -8 -187 -8 -123 0 -183 -3 -179 -10 4 -7 142 -10 397 -10 369
1 449 4 448 19 -1 8 -78 61 -89 61 -5 0 -20 -14 -33 -30 l-24 -31 -115 3 -114
3 0 40 0 40 135 1 c205 1 208 2 142 43 -38 23 -38 23 -37 90 l0 66 73 3 c39 2
72 6 72 10 0 4 -19 20 -42 36 l-41 29 -19 -26 c-11 -15 -25 -27 -32 -27 -19 0
-13 48 8 63 17 12 15 16 -34 47 l-52 34 -17 -21 c-13 -17 -30 -22 -88 -26
l-73 -4 0 27 c0 20 6 29 21 33 12 3 18 10 14 16 -7 12 -136 15 -134 4z m247
-135 l-3 -43 -70 0 -70 0 -3 43 -3 42 76 0 76 0 -3 -42z m2 -103 l0 -45 -75 0
-75 0 0 45 0 45 75 0 75 0 0 -45z m0 -81 c0 -13 7 -15 35 -10 41 8 43 1 13
-31 -19 -21 -30 -23 -110 -23 l-88 0 0 40 0 40 75 0 c62 0 75 -3 75 -16z"/>
<path d="M6028 2433 l-3 -68 -53 -3 c-47 -3 -54 -1 -59 17 -8 29 -18 26 -33
-10 -7 -16 -28 -42 -46 -56 -39 -30 -45 -66 -13 -83 45 -24 93 18 101 90 l3
25 157 2 c87 1 159 -1 162 -5 2 -4 1 -25 -3 -47 -5 -34 -10 -40 -28 -37 -14 2
-28 -6 -39 -22 -16 -26 -18 -26 -145 -26 -79 0 -129 -4 -129 -10 0 -13 377
-14 385 -1 3 6 -4 15 -15 21 -11 6 -20 14 -20 18 0 10 96 82 110 82 19 0 10
16 -30 55 l-40 39 -28 -27 c-23 -22 -37 -27 -80 -27 l-52 0 0 54 c0 42 4 55
17 60 30 12 -6 26 -64 26 l-52 0 -3 -67z"/>
<path d="M5732 2465 c-27 -31 -71 -33 -142 -6 l-50 19 0 -419 0 -419 26 0 c14
0 34 5 45 10 18 10 19 25 19 390 l0 380 40 0 c48 0 48 3 19 -141 l-21 -106 26
-42 c32 -50 51 -136 42 -185 -7 -36 -10 -38 -63 -40 -31 -1 -38 -13 -13 -21
13 -4 23 -18 27 -36 7 -39 13 -41 59 -25 54 18 84 65 84 129 0 67 -30 126 -92
182 l-50 45 18 28 c10 15 24 36 30 47 57 105 77 134 97 139 21 5 19 8 -23 51
-24 25 -47 45 -50 45 -4 0 -16 -11 -28 -25z"/>
<path d="M2070 2455 c-23 -25 -26 -25 -199 -25 -151 0 -183 3 -228 20 -29 11
-54 16 -56 12 -3 -4 -5 -85 -6 -179 l-2 -173 25 0 c37 0 76 18 76 35 0 12 14
15 70 15 68 0 70 -1 66 -22 -3 -13 -8 -41 -11 -63 -12 -77 -9 -75 -88 -75 -48
0 -90 7 -125 20 -29 11 -57 20 -62 20 -7 0 -9 -69 -8 -197 3 -195 3 -198 25
-201 28 -4 83 24 83 43 0 13 33 15 243 13 l242 -3 3 -22 c4 -26 22 -29 71 -12
l31 11 0 143 c0 118 3 144 15 149 25 9 17 23 -36 57 l-51 32 -24 -26 c-24 -27
-27 -27 -159 -27 -74 0 -135 2 -135 5 0 3 23 36 50 72 28 36 50 70 50 74 0 5
29 9 65 9 58 0 65 -2 65 -20 0 -23 21 -26 69 -9 l31 11 0 123 c0 102 3 124 16
129 20 8 12 20 -40 55 l-43 30 -23 -24z m-10 -160 l0 -115 -187 2 -188 3 -3
113 -3 112 191 0 190 0 0 -115z m60 -445 l0 -130 -245 0 -245 0 0 130 0 129
88 3 c48 2 158 2 245 0 l157 -3 0 -129z"/>
<path d="M4196 2345 c-15 -23 -22 -25 -97 -25 -48 0 -91 5 -107 14 -15 7 -37
17 -49 20 l-23 7 0 -350 c0 -342 1 -351 20 -351 10 0 31 5 45 12 20 9 25 18
25 50 l0 38 80 0 c44 0 83 1 88 3 4 1 8 -17 10 -40 3 -38 6 -43 27 -43 13 0
35 4 49 10 l26 10 0 286 c0 262 2 288 17 300 10 7 16 14 13 16 -101 79 -101
79 -124 43z m-8 -302 l-3 -258 -85 0 -85 0 -3 258 -2 257 90 0 90 0 -2 -257z"/>
<path d="M6242 2080 l-23 -30 -194 0 c-123 0 -195 -4 -195 -10 0 -5 23 -10 51
-10 l52 0 -6 -79 c-7 -102 -43 -185 -106 -244 -26 -24 -53 -46 -61 -49 -8 -3
-12 -9 -7 -13 4 -5 35 5 68 21 113 54 187 161 204 296 6 46 11 57 29 62 47 13
46 15 46 -159 0 -209 -3 -205 135 -205 82 0 98 3 115 20 25 25 25 31 -1 54
-18 15 -21 26 -16 62 5 48 -9 60 -19 17 -4 -16 -13 -41 -21 -56 -13 -25 -19
-28 -56 -25 l-42 3 -3 141 c-3 162 -9 154 100 154 31 0 59 4 62 9 6 8 -66 71
-82 71 -4 0 -18 -13 -30 -30z"/>
<path d="M2770 2044 c0 -2 26 -29 58 -61 31 -32 65 -68 74 -80 17 -22 37 -22
66 0 33 26 0 96 -56 119 -26 10 -142 28 -142 22z"/>
<path d="M5119 1944 c-22 -24 -25 -24 -206 -24 -155 0 -190 3 -232 19 -28 10
-52 16 -55 13 -4 -3 -6 -74 -6 -159 l0 -153 31 0 c22 0 40 9 59 30 l28 30 184
-2 c181 -3 183 -3 186 -25 3 -18 10 -23 33 -23 64 0 69 10 69 125 0 87 3 105
15 105 29 0 14 25 -34 57 l-49 32 -23 -25z m-9 -84 l0 -40 -195 0 -195 0 0 40
0 40 195 0 195 0 0 -40z m-2 -102 c-3 -40 -5 -43 -33 -42 -16 1 -103 2 -192 3
l-163 1 0 40 0 40 196 0 195 0 -3 -42z"/>
<path d="M2690 1831 c0 -116 1 -123 25 -146 24 -25 27 -25 187 -25 132 0 168
3 186 16 27 19 29 51 2 59 -17 5 -20 16 -21 63 l-1 57 -25 -55 c-13 -30 -30
-58 -36 -62 -7 -5 -57 -7 -112 -6 l-100 3 -3 90 c-2 76 0 92 14 102 10 7 16
13 13 13 -2 1 -32 4 -66 7 l-63 5 0 -121z"/>
<path d="M3121 1903 c41 -46 89 -142 89 -179 0 -18 48 -30 69 -17 9 6 20 21
25 35 27 75 -67 171 -199 204 -30 7 -30 7 16 -43z"/>
<path d="M2592 1903 c-15 -48 -37 -73 -91 -107 -37 -24 -42 -31 -39 -58 6 -61
92 -53 139 13 20 28 24 46 24 101 0 81 -16 106 -33 51z"/>
<path d="M2331 1486 c-29 -31 -26 -39 8 -21 36 18 45 31 27 38 -8 3 -23 -5
-35 -17z"/>
<path d="M1473 1425 c-51 -22 -75 -69 -70 -138 3 -49 8 -63 35 -89 26 -27 40
-32 90 -36 51 -4 63 -1 81 17 11 11 21 29 21 39 -1 13 -5 11 -21 -10 -17 -23
-28 -28 -64 -28 -36 0 -48 5 -69 31 -32 37 -40 68 -33 120 9 66 57 104 117 92
19 -3 36 -16 44 -31 l13 -25 7 28 c5 19 3 31 -6 36 -21 13 -110 10 -145 -6z"/>
<path d="M1743 1420 c-46 -28 -67 -65 -67 -119 1 -90 51 -141 139 -141 37 0
52 6 82 33 32 30 37 41 41 90 3 34 -1 69 -8 87 -26 64 -122 90 -187 50z m108
-10 c30 -16 49 -64 49 -123 0 -72 -26 -107 -79 -107 -65 0 -101 47 -101 131 0
73 25 109 76 109 20 0 44 -5 55 -10z"/>
<path d="M2533 1425 c-51 -22 -75 -69 -70 -137 5 -84 55 -128 144 -128 72 0
83 8 83 54 0 23 5 47 12 54 9 9 0 12 -42 11 -47 0 -52 -2 -32 -11 17 -9 22
-20 22 -50 l0 -38 -44 0 c-56 0 -92 34 -102 95 -11 80 17 135 76 150 34 8 81
-10 87 -35 8 -30 23 -24 23 9 0 17 -6 31 -16 35 -28 11 -108 6 -141 -9z"/>
<path d="M2970 1433 c-28 -10 -70 -56 -81 -90 -30 -92 33 -183 126 -183 80 0
135 59 135 143 0 56 -21 97 -60 121 -27 15 -89 20 -120 9z m91 -23 c50 -27 68
-153 28 -204 -16 -20 -29 -26 -61 -26 -96 0 -142 144 -71 222 18 20 73 24 104
8z"/>
<path d="M4704 1421 c-48 -29 -64 -59 -64 -118 0 -99 39 -138 138 -138 51 0
66 4 78 19 26 36 16 52 -14 23 -48 -46 -120 -31 -151 30 -15 29 -14 105 1 138
12 27 54 55 82 55 29 0 66 -23 66 -42 0 -10 5 -18 11 -18 6 0 9 14 7 33 -3 32
-3 32 -63 35 -45 2 -68 -2 -91 -17z"/>
<path d="M5983 1421 c-40 -25 -63 -68 -63 -119 0 -94 42 -137 132 -137 49 0
61 4 88 30 57 55 62 150 10 208 -36 40 -118 49 -167 18z m127 -31 c33 -36 46
-93 31 -145 -19 -71 -86 -87 -143 -36 -31 28 -33 33 -33 99 0 87 18 112 78
112 31 0 45 -6 67 -30z"/>
<path d="M6324 1430 c-11 -4 -32 -22 -47 -39 -75 -90 -17 -231 95 -231 104 0
165 99 128 206 -21 59 -110 91 -176 64z m97 -20 c30 -17 49 -64 49 -125 0 -69
-29 -105 -83 -105 -91 0 -138 147 -71 221 19 21 73 25 105 9z"/>
<path d="M2003 1419 c14 -9 17 -26 17 -120 0 -104 -1 -110 -22 -119 -16 -6 8
-9 79 -9 l101 -1 11 31 c13 38 13 39 3 39 -5 0 -14 -11 -20 -25 -10 -22 -18
-25 -62 -25 l-50 0 0 110 c0 93 3 110 18 119 13 8 4 10 -38 10 -42 0 -51 -2
-37 -10z"/>
<path d="M2233 1419 c14 -9 17 -26 17 -120 0 -104 -1 -110 -22 -119 -16 -6 8
-9 79 -9 102 -1 103 -1 109 24 8 33 -1 43 -16 16 -9 -17 -20 -21 -60 -21 l-50
0 0 50 0 50 35 0 c22 0 38 -6 41 -15 10 -25 24 -6 24 31 0 35 -13 46 -24 19
-3 -9 -19 -15 -41 -15 l-36 0 3 53 c3 50 4 52 35 55 22 2 37 -3 52 -19 l21
-23 0 27 0 27 -92 0 c-68 -1 -88 -3 -75 -11z"/>
<path d="M2763 1419 c14 -9 17 -26 17 -120 0 -104 -1 -110 -22 -119 -17 -6 -7
-9 42 -9 54 0 61 2 43 11 -22 11 -23 17 -23 124 0 99 2 113 18 117 9 3 -8 5
-38 6 -42 0 -51 -2 -37 -10z"/>
<path d="M3293 1419 c14 -8 17 -25 17 -109 0 -109 -4 -130 -29 -131 -42 -2 29
-18 82 -18 113 -2 172 50 171 148 -1 50 -5 58 -37 88 -36 32 -38 33 -129 33
-68 -1 -88 -3 -75 -11z m143 -15 c66 -32 83 -146 28 -201 -19 -19 -33 -24 -67
-21 l-42 3 -3 118 -3 117 27 0 c14 0 41 -7 60 -16z"/>
<path d="M3593 1419 c14 -9 17 -26 17 -120 0 -104 -1 -110 -22 -119 -16 -6 8
-9 78 -9 102 -1 102 -1 108 25 9 34 1 42 -14 15 -9 -17 -20 -21 -60 -21 l-50
0 0 50 0 50 35 0 c25 0 38 -5 43 -17 4 -13 8 -7 13 22 8 45 2 59 -12 32 -7
-11 -22 -17 -44 -17 l-35 0 0 55 c0 54 0 55 29 55 39 0 61 -9 61 -26 0 -8 5
-14 10 -14 6 0 10 11 10 25 0 25 0 25 -92 25 -68 -1 -88 -3 -75 -11z"/>
<path d="M3913 1419 c14 -8 17 -25 17 -114 0 -96 -2 -105 -22 -119 -21 -15
-16 -16 74 -16 86 0 99 2 108 19 5 11 10 28 10 38 0 14 -5 12 -23 -10 -19 -25
-28 -28 -67 -25 l-45 3 0 108 c0 85 3 110 15 117 11 7 0 10 -35 10 -39 -1 -46
-3 -32 -11z"/>
<path d="M4123 1419 c14 -8 17 -25 17 -99 0 -49 5 -100 11 -113 23 -51 118
-64 165 -24 29 25 42 79 43 179 1 34 6 50 19 57 13 8 6 10 -33 10 -39 0 -46
-2 -32 -10 14 -8 17 -25 17 -102 0 -51 -4 -97 -8 -103 -14 -21 -54 -36 -80
-29 -54 13 -62 30 -62 131 0 78 3 95 18 103 13 8 4 10 -38 10 -42 0 -51 -2
-37 -10z"/>
<path d="M4434 1414 c12 -12 16 -37 16 -112 0 -99 -4 -115 -30 -125 -8 -3 12
-6 45 -6 52 0 58 1 43 13 -15 11 -18 30 -18 124 0 79 4 112 13 115 6 3 -10 6
-36 6 -44 1 -47 0 -33 -15z"/>
<path d="M4923 1419 c14 -8 17 -26 17 -116 0 -89 -3 -108 -17 -119 -16 -12
-11 -13 37 -13 48 0 53 1 38 13 -13 9 -18 27 -18 60 l0 46 70 0 70 0 0 -50 c0
-36 -5 -52 -17 -59 -14 -8 -3 -10 42 -10 46 0 55 2 38 9 -22 9 -23 15 -23 119
0 94 3 111 18 120 13 8 4 10 -38 10 -42 0 -51 -2 -37 -10 12 -7 17 -23 17 -59
l0 -50 -70 0 -70 0 0 54 c0 34 5 56 13 59 6 3 -10 6 -38 6 -39 0 -46 -2 -32
-10z"/>
<path d="M5243 1419 c14 -9 17 -26 17 -120 0 -104 -1 -110 -22 -119 -16 -6 8
-9 79 -9 102 -1 103 -1 109 24 8 33 -1 43 -16 16 -9 -17 -20 -21 -60 -21 l-50
0 0 50 0 50 35 0 c21 0 37 -6 43 -16 7 -13 10 -9 14 20 4 38 -5 58 -16 31 -3
-9 -19 -15 -41 -15 l-35 0 0 55 c0 54 0 55 29 55 39 0 61 -9 61 -26 0 -8 5
-14 10 -14 6 0 10 11 10 25 0 25 0 25 -92 25 -68 -1 -88 -3 -75 -11z"/>
<path d="M5539 1413 c15 -12 31 -54 53 -130 17 -63 36 -113 42 -113 7 0 25 41
41 90 16 50 32 90 36 90 4 0 20 -39 36 -87 28 -82 48 -111 57 -81 3 7 19 58
36 113 18 59 40 107 52 118 20 17 19 17 -28 17 -42 0 -46 -2 -30 -13 17 -12
17 -17 -5 -95 -12 -45 -26 -82 -30 -82 -4 0 -20 39 -36 87 -16 48 -34 88 -40
90 -5 2 -18 -18 -27 -44 -10 -26 -25 -67 -34 -91 -18 -50 -21 -46 -47 51 -14
54 -15 70 -5 82 11 13 5 15 -40 15 -51 0 -52 0 -31 -17z"/>
<path d="M2513 920 c-54 -28 -77 -74 -71 -142 8 -74 47 -110 128 -116 64 -5
100 12 100 46 0 12 -5 11 -22 -5 -34 -31 -62 -36 -103 -19 -47 20 -70 71 -61
141 7 62 39 95 94 95 42 0 54 -6 70 -35 10 -19 11 -18 17 8 4 15 5 30 2 33 -3
3 -29 7 -58 10 -42 4 -63 1 -96 -16z"/>
<path d="M3800 923 c-129 -67 -93 -263 49 -263 108 0 170 100 127 205 -27 64
-111 92 -176 58z m102 -23 c36 -28 51 -72 46 -131 -7 -64 -33 -93 -84 -92 -44
1 -80 33 -95 84 -33 108 56 200 133 139z"/>
<path d="M4115 922 c-50 -24 -75 -66 -75 -127 0 -87 47 -135 132 -135 47 0
100 27 117 59 21 37 24 105 8 143 -29 68 -109 94 -182 60z m115 -30 c30 -30
48 -101 36 -146 -18 -74 -93 -94 -148 -38 -27 26 -32 40 -36 91 -4 56 -2 62
26 91 40 40 83 40 122 2z"/>
<path d="M4520 922 c-69 -34 -97 -112 -66 -185 20 -48 50 -69 105 -75 67 -6
95 2 109 33 18 39 15 40 -24 5 -30 -26 -41 -30 -68 -24 -43 9 -74 40 -87 87
-22 84 18 157 86 157 43 0 75 -15 75 -35 0 -8 5 -15 10 -15 6 0 10 13 10 29 0
21 -6 30 -22 35 -42 11 -93 6 -128 -12z"/>
<path d="M4783 920 c-93 -47 -100 -197 -11 -246 35 -20 108 -17 145 6 38 22
50 43 59 98 19 117 -88 195 -193 142z m110 -20 c70 -55 56 -208 -20 -223 -71
-14 -131 59 -121 148 10 85 80 122 141 75z"/>
<path d="M5825 929 c-60 -17 -95 -68 -95 -137 0 -79 58 -132 144 -132 85 0 92
4 88 56 -3 27 0 44 7 44 6 0 11 5 11 10 0 6 -22 10 -50 10 -27 0 -50 -4 -50
-10 0 -5 9 -10 20 -10 17 0 20 -7 20 -39 0 -47 -10 -55 -54 -47 -43 8 -73 37
-87 85 -26 87 17 161 94 161 46 0 67 -13 67 -42 0 -10 5 -18 10 -18 6 0 10 15
10 34 0 26 -5 35 -22 40 -31 8 -77 6 -113 -5z"/>
<path d="M1703 916 c14 -11 17 -30 17 -120 0 -101 -1 -107 -22 -116 -16 -6 8
-9 79 -9 l101 -1 11 31 c13 38 13 39 4 39 -5 0 -16 -14 -25 -31 -16 -27 -22
-30 -60 -27 l-43 3 -3 109 c-2 94 0 110 15 122 16 12 11 13 -37 13 -48 0 -53
-1 -37 -13z"/>
<path d="M1911 917 c13 -9 17 -35 21 -111 4 -93 6 -100 32 -122 30 -26 101
-33 138 -13 31 17 48 71 48 154 0 58 3 77 15 81 30 12 14 24 -32 23 -47 0 -47
-1 -25 -16 20 -14 22 -24 22 -98 0 -68 -4 -87 -21 -109 -25 -32 -75 -35 -110
-7 -22 17 -24 29 -28 111 -3 80 -1 93 15 105 17 13 13 14 -36 14 -46 0 -52 -2
-39 -12z"/>
<path d="M2223 916 c14 -11 17 -30 17 -124 0 -97 -2 -111 -17 -115 -10 -3 7
-5 37 -6 42 0 51 2 38 10 -15 9 -18 26 -18 119 0 93 3 110 18 119 13 8 4 10
-38 10 -48 0 -53 -1 -37 -13z"/>
<path d="M2729 909 c20 -19 22 -29 20 -107 -2 -102 -6 -120 -28 -125 -9 -3 11
-5 44 -5 46 -1 55 1 37 9 -20 8 -23 15 -20 56 l3 48 68 3 67 3 0 -55 c0 -44
-4 -55 -17 -59 -10 -3 9 -5 42 -5 45 -1 54 1 38 8 -22 9 -23 15 -23 116 0 90
3 109 18 120 15 12 10 13 -38 13 -48 0 -53 -1 -37 -13 12 -9 17 -27 17 -60 l0
-46 -70 0 -70 0 0 46 c0 33 5 51 18 60 15 12 10 13 -37 14 l-55 0 23 -21z"/>
<path d="M3043 919 c15 -9 17 -26 17 -124 0 -110 -1 -114 -22 -118 -13 -3 24
-4 82 -3 l105 1 3 30 4 30 -22 -28 c-19 -24 -28 -28 -64 -25 l-41 3 -3 53 -3
52 36 0 c22 0 38 -6 41 -15 12 -29 24 -14 24 28 -1 37 -2 40 -14 25 -8 -12
-27 -18 -50 -18 l-36 0 0 50 0 50 44 0 c37 0 46 -4 52 -22 l8 -23 6 25 c4 14
5 28 3 33 -2 4 -46 7 -96 7 -67 -1 -87 -3 -74 -11z"/>
<path d="M3325 920 c3 -5 12 -10 20 -10 13 0 24 -29 61 -172 10 -38 23 -68 30
-68 6 0 26 41 44 91 18 50 36 87 40 82 4 -4 20 -45 35 -90 14 -46 32 -83 39
-83 7 0 27 48 46 111 19 64 42 120 54 130 19 19 19 19 -30 19 -43 -1 -47 -2
-31 -14 9 -7 17 -20 17 -29 0 -24 -40 -147 -48 -147 -4 0 -21 39 -37 88 -17
48 -34 87 -40 87 -5 0 -23 -39 -40 -87 -16 -49 -32 -88 -36 -88 -11 0 -49 165
-39 168 27 10 4 22 -41 22 -31 0 -48 -4 -44 -10z"/>
<path d="M5043 912 c13 -15 17 -39 17 -113 0 -97 -4 -112 -30 -122 -8 -3 31
-6 87 -6 l101 -1 7 31 c9 40 -1 49 -16 15 -13 -29 -40 -39 -85 -34 l-29 3 -3
108 c-2 89 0 108 13 113 30 12 14 24 -32 24 -44 0 -45 -1 -30 -18z"/>
<path d="M5273 916 c14 -11 17 -30 17 -124 0 -97 -2 -111 -17 -115 -10 -3 26
-5 80 -6 96 -1 98 -1 107 25 17 44 10 50 -18 16 -24 -29 -33 -33 -67 -30 l-40
3 -3 109 c-2 94 0 110 15 122 16 12 11 13 -37 13 -48 0 -53 -1 -37 -13z"/>
<path d="M5503 916 c14 -11 17 -30 17 -124 0 -107 -1 -111 -22 -115 -13 -2 23
-5 80 -6 102 -1 103 -1 113 25 14 37 3 42 -22 11 -13 -18 -30 -27 -49 -27 -52
0 -60 8 -60 61 l0 49 35 0 c22 0 38 -6 41 -15 12 -29 24 -14 24 28 -1 37 -2
40 -14 25 -8 -12 -27 -18 -50 -18 l-36 0 0 50 0 50 44 0 c37 0 46 -4 52 -22
l8 -23 6 25 c4 14 5 28 3 33 -2 4 -46 7 -96 7 -79 -1 -89 -3 -74 -14z"/>
<path d="M6033 916 c14 -11 17 -30 17 -120 0 -101 -1 -107 -22 -116 -16 -6 8
-9 80 -9 98 -1 103 0 111 22 13 34 2 41 -21 12 -17 -22 -27 -26 -62 -23 l-41
3 -3 53 -3 52 36 0 c22 0 38 -6 41 -15 12 -29 24 -14 24 28 -1 37 -2 40 -14
25 -8 -12 -27 -18 -50 -18 l-36 0 0 50 0 50 45 0 c33 0 45 -4 45 -14 0 -8 5
-18 10 -21 6 -4 10 7 10 24 l0 31 -92 0 c-80 -1 -90 -3 -75 -14z"/>
</g>
</svg>
