<?xml version="1.0" standalone="no"?>
<!DOCTYPE svg PUBLIC "-//W3C//DTD SVG 20010904//EN"
 "http://www.w3.org/TR/2001/REC-SVG-20010904/DTD/svg10.dtd">
<svg version="1.0" xmlns="http://www.w3.org/2000/svg"
 width="9900.000000pt" height="9900.000000pt" viewBox="0 0 9900.000000 9900.000000"
 preserveAspectRatio="xMidYMid meet">

<g transform="translate(0.000000,9900.000000) scale(0.100000,-0.100000)"
fill="#000000" stroke="none">
<path d="M49125 98993 c-2893 -18 -5858 -302 -8724 -834 -5204 -966 -10221
-2770 -14861 -5342 -4890 -2710 -9289 -6232 -13029 -10432 -3756 -4218 -6776
-9070 -8891 -14285 -1893 -4668 -3050 -9558 -3455 -14600 -73 -916 -139 -2193
-144 -2789 -1 -112 -4 -208 -7 -212 -9 -16 -5 -1824 5 -2219 103 -3792 595
-7401 1491 -10937 1015 -4001 2478 -7749 4443 -11383 2882 -5329 6773 -10137
11412 -14101 3587 -3066 7578 -5596 11870 -7526 5135 -2309 10639 -3719 16265
-4168 471 -37 663 -50 1345 -90 1302 -76 3196 -88 4650 -30 3658 147 7265 690
10745 1616 288 77 841 230 990 274 63 19 260 77 437 130 3155 934 6320 2244
9298 3848 3577 1926 6951 4328 9970 7097 2241 2055 4279 4297 6107 6720 2470
3274 4545 6881 6113 10625 100 240 153 368 330 805 25 63 101 255 167 425
1977 5096 3080 10415 3303 15920 49 1231 49 2759 0 3990 -269 6651 -1827
13044 -4638 19035 -1721 3667 -3926 7160 -6516 10320 -779 950 -1739 2034
-2515 2840 -1870 1941 -3673 3558 -5686 5101 -7393 5670 -16167 9116 -25410
9983 -1687 159 -3338 230 -5065 219z m1910 -662 c1314 -49 2201 -107 3311
-216 8664 -852 16914 -4006 23959 -9159 2468 -1805 4771 -3844 6860 -6076
4553 -4863 8067 -10598 10307 -16820 229 -635 389 -1112 673 -2001 59 -183
240 -791 334 -1119 974 -3413 1577 -6957 1785 -10500 63 -1067 81 -1717 81
-2940 0 -1170 -15 -1775 -70 -2765 -385 -6911 -2226 -13627 -5420 -19765
-2624 -5043 -6153 -9638 -10365 -13496 -4182 -3831 -8968 -6893 -14180 -9071
-4819 -2014 -9960 -3240 -15190 -3622 -819 -60 -1679 -102 -2442 -118 -693
-15 -2432 -8 -2833 12 -55 3 -219 10 -365 15 -2140 83 -4401 327 -6565 711
-286 51 -988 183 -1060 200 -22 5 -170 36 -330 68 -1132 232 -2374 539 -3550
877 -3532 1016 -6959 2440 -10180 4232 -286 159 -319 177 -645 365 -5212 3001
-9864 6975 -13656 11667 -4142 5124 -7203 11019 -8989 17310 -1073 3779 -1675
7607 -1825 11600 -44 1177 -38 2704 15 3925 225 5155 1242 10171 3033 14960
3039 8123 8211 15312 14977 20816 6480 5272 14176 8783 22375 10208 1750 304
3579 520 5300 625 668 41 1064 60 1635 76 209 6 427 12 485 14 241 7 2277 -3
2535 -13z"/>
<path d="M55233 94446 c-23 -8 -57 -23 -75 -34 -35 -22 -136 -123 -154 -153
-13 -23 -150 -120 -276 -195 -827 -491 -2058 -727 -3658 -700 -206 3 -463 11
-570 17 -416 24 -511 16 -571 -43 -24 -25 -29 -38 -29 -80 0 -28 4 -67 10 -87
5 -20 16 -74 25 -121 21 -111 117 -393 152 -442 67 -97 189 -157 386 -188 244
-38 1111 24 1505 109 45 10 82 17 82 16 0 -1 -27 -23 -59 -48 -117 -92 -198
-220 -226 -354 -28 -139 -52 -631 -57 -1188 l-3 -280 34 -63 c37 -67 101 -131
165 -164 146 -75 371 -84 609 -24 90 23 95 23 247 10 411 -36 1835 -212 2260
-280 929 -149 1491 -251 1840 -334 243 -59 287 -72 445 -135 141 -57 195 -64
317 -41 248 47 429 196 552 457 63 133 75 175 160 534 83 354 104 426 147 501
35 62 106 144 124 144 7 0 36 -19 63 -42 28 -24 107 -83 177 -132 94 -66 149
-97 213 -120 85 -30 91 -31 257 -30 157 0 179 3 286 32 285 76 493 190 688
377 74 70 256 289 292 350 l19 32 -34 31 c-61 53 -116 79 -301 142 -489 167
-955 365 -1492 633 -125 63 -358 173 -518 245 -990 445 -2079 989 -2262 1131
-56 43 -58 47 -89 145 -25 81 -100 184 -174 240 -157 117 -373 174 -507 132z
m335 -914 c172 -74 501 -276 922 -567 353 -243 360 -248 357 -251 -1 -1 -105
20 -232 47 -798 169 -1496 277 -2160 337 l-90 8 230 116 c435 219 738 341 862
347 13 1 62 -16 111 -37z m-2172 -708 c-11 -28 12 -89 46 -121 70 -68 102 -75
423 -89 437 -20 727 -51 1185 -125 849 -137 2080 -329 2114 -329 95 0 208 58
222 114 5 20 14 14 92 -64 48 -47 158 -144 245 -215 237 -195 222 -180 157
-150 -68 31 -131 32 -184 4 -47 -25 -176 -59 -225 -59 -19 0 -139 20 -265 45
-1425 276 -2875 491 -3981 590 -283 26 -480 77 -621 161 -59 35 -102 70 -93
77 2 2 90 18 194 36 240 41 569 107 626 125 60 19 72 19 65 0z m-11 -914 c350
-16 540 -32 843 -70 178 -23 194 -27 244 -51 85 -43 119 -138 93 -262 -8 -40
-35 -200 -59 -355 -30 -185 -51 -295 -63 -314 -28 -48 -86 -73 -163 -72 -36 1
-191 22 -345 47 -173 29 -345 50 -450 57 -525 33 -702 74 -772 179 -39 58 -39
86 11 399 51 325 60 355 133 404 64 44 128 58 228 52 39 -2 174 -9 300 -14z
m3081 -380 c655 -103 697 -111 759 -142 79 -39 166 -114 200 -172 44 -75 50
-131 26 -269 -11 -67 -32 -150 -46 -184 -14 -34 -34 -97 -46 -140 -29 -105
-50 -143 -104 -191 -62 -54 -128 -75 -235 -75 -121 1 -1479 217 -1538 245 -60
28 -91 74 -104 150 -9 57 -5 95 41 387 34 210 59 337 71 361 49 97 117 140
218 140 35 0 376 -49 758 -110z"/>
<path d="M53528 91809 c-68 -16 -195 -69 -237 -99 -76 -55 -106 -158 -82 -282
19 -97 43 -141 123 -221 168 -171 388 -267 679 -297 101 -10 120 -10 153 4
l39 16 -6 53 c-3 34 -18 74 -42 117 -58 101 -141 271 -155 315 -7 22 -41 99
-76 172 -72 147 -113 193 -200 219 -52 15 -138 17 -196 3z"/>
<path d="M56525 91450 c-147 -27 -238 -93 -525 -380 -96 -96 -208 -201 -247
-233 -84 -67 -97 -86 -88 -133 10 -55 35 -65 201 -74 331 -18 633 28 852 130
104 49 190 128 233 216 29 58 31 69 28 146 -7 150 -82 257 -219 309 -60 23
-166 31 -235 19z"/>
<path d="M41942 93900 c-214 -27 -360 -106 -417 -226 -47 -100 -39 -205 37
-478 33 -116 66 -272 94 -436 23 -140 54 -290 68 -333 57 -179 134 -587 117
-624 -21 -47 -86 -63 -541 -135 -499 -80 -525 -81 -576 -25 -74 80 -72 210 6
496 47 174 4 397 -101 528 -44 55 -127 118 -204 154 -55 27 -69 29 -170 29
-183 0 -300 -40 -404 -136 -93 -86 -141 -191 -181 -399 -104 -538 -361 -1305
-694 -2071 -36 -84 -66 -164 -66 -179 0 -36 55 -90 105 -104 68 -19 173 -13
235 12 160 66 393 293 570 557 95 141 222 246 370 304 93 37 1630 280 1679
266 48 -13 78 -36 96 -69 12 -24 70 -351 99 -563 8 -53 -6 -119 -29 -138 -8
-7 -88 -27 -178 -45 -203 -41 -522 -116 -862 -202 -247 -63 -266 -66 -375 -66
-100 0 -121 4 -158 23 -155 81 -350 -45 -616 -400 -99 -131 -110 -152 -136
-256 -35 -134 -23 -221 35 -273 44 -38 105 -55 171 -47 134 16 466 122 820
261 343 136 606 221 880 283 233 54 496 88 541 71 37 -14 56 -54 59 -127 2
-37 24 -193 49 -347 24 -154 45 -301 45 -327 0 -96 -62 -207 -145 -258 -19
-11 -87 -40 -152 -64 -153 -57 -168 -62 -108 -31 64 32 48 32 -46 -1 -155 -53
-457 -135 -603 -163 -189 -37 -336 -74 -641 -161 -132 -38 -375 -98 -540 -135
-317 -70 -601 -141 -699 -173 l-58 -20 -47 23 c-61 31 -134 40 -207 25 -77
-15 -221 -86 -309 -151 -90 -67 -395 -373 -463 -464 -99 -132 -152 -264 -152
-381 0 -52 6 -74 40 -141 77 -154 178 -231 317 -240 99 -7 181 16 402 113
1338 591 2435 946 3586 1159 836 155 1990 204 3100 130 538 -36 1328 -127
1611 -185 54 -11 153 -30 218 -40 119 -20 120 -20 204 0 259 62 493 246 685
540 80 124 222 391 262 495 45 118 79 248 94 360 7 50 16 120 22 157 11 70 7
89 -29 121 -38 34 -110 31 -422 -18 -1341 -210 -2804 -383 -4017 -475 -207
-16 -278 -18 -294 -10 -41 22 -57 90 -124 508 -58 362 -65 416 -55 453 15 53
56 93 112 108 24 6 545 90 1158 187 1068 168 1117 177 1160 204 61 39 133 115
161 170 32 61 37 154 13 233 l-18 60 -236 -7 c-691 -20 -1406 -82 -2138 -187
-321 -46 -316 -47 -346 33 -19 51 -96 530 -96 595 0 58 28 105 77 128 24 11
462 85 1227 206 655 103 1209 194 1231 201 55 17 120 80 142 136 24 64 23 318
-2 356 -24 37 -82 60 -160 64 -156 8 -1385 -141 -2132 -259 l-392 -62 -45 17
c-86 33 -82 17 -200 768 -62 388 -113 687 -125 717 -73 192 -298 321 -640 367
-141 18 -449 26 -549 14z"/>
<path d="M31232 91240 c-29 -10 -68 -28 -86 -40 -54 -32 -157 -149 -201 -225
-53 -94 -172 -213 -252 -252 -35 -17 -98 -39 -140 -48 -108 -23 -201 -51 -321
-97 -85 -33 -112 -49 -156 -91 -94 -92 -176 -270 -176 -381 0 -182 101 -283
259 -260 66 9 89 24 189 117 198 185 420 317 560 334 47 5 48 5 100 -51 126
-134 121 -236 -18 -325 -82 -53 -239 -104 -314 -103 -72 2 -99 -13 -182 -100
-104 -110 -135 -178 -135 -303 0 -44 7 -104 16 -133 14 -45 22 -56 51 -68 63
-27 151 9 255 104 35 32 124 87 253 157 250 135 275 146 336 147 75 0 112 -28
157 -118 62 -127 55 -230 -22 -288 -46 -35 -225 -114 -298 -131 -34 -8 -86
-15 -115 -15 -29 0 -68 -6 -87 -14 -78 -33 -182 -160 -240 -293 -14 -32 -38
-68 -53 -80 -24 -21 -27 -30 -30 -103 -4 -77 -3 -80 25 -109 34 -34 94 -47
182 -38 70 6 130 32 237 102 104 67 431 246 502 274 90 36 110 31 169 -44 107
-134 139 -256 94 -357 -38 -83 -67 -100 -1971 -1133 -1841 -999 -2052 -1113
-2072 -1120 -49 -19 -164 163 -204 322 l-18 71 28 41 c59 85 179 170 444 313
237 129 302 187 302 270 0 49 -12 78 -51 122 -134 154 -394 92 -740 -175 -41
-32 -95 -65 -118 -74 -99 -35 -193 -8 -273 77 -60 63 -76 110 -55 160 18 43
83 93 141 109 59 16 161 70 238 125 36 27 121 78 189 114 200 106 256 177 230
293 -41 184 -280 196 -574 28 -40 -23 -118 -76 -174 -117 -83 -60 -112 -76
-157 -85 -113 -21 -199 34 -231 146 l-18 59 124 121 c139 135 284 254 468 383
156 109 197 146 268 240 60 79 133 212 133 240 0 9 8 1 19 -18 43 -82 147
-106 400 -95 219 9 231 9 313 5 l66 -4 -30 -36 c-161 -190 -270 -329 -316
-400 -91 -142 -153 -232 -209 -303 -92 -119 -94 -186 -7 -226 89 -42 190 -21
331 71 263 171 592 503 858 867 l68 93 271 -5 c236 -4 407 -19 392 -34 -2 -2
-30 -11 -63 -19 -103 -27 -203 -82 -269 -148 -71 -71 -105 -133 -135 -243 -24
-90 -115 -318 -132 -331 -7 -5 -75 -20 -152 -32 -496 -78 -916 -207 -990 -305
-33 -43 -55 -113 -55 -177 0 -79 51 -112 160 -102 25 2 113 8 195 14 139 10
322 32 388 46 26 5 27 4 17 -21 -59 -155 -206 -364 -421 -600 -118 -129 -155
-219 -109 -265 30 -30 79 -25 173 19 356 164 708 440 983 771 98 117 172 182
254 224 95 47 137 54 420 65 302 13 441 35 547 89 78 40 160 155 170 240 5 45
2 55 -23 90 -59 80 -128 120 -242 143 -78 15 -228 7 -337 -17 -188 -43 -279 6
-168 91 87 66 143 147 168 240 20 79 19 118 -5 166 -29 56 -71 79 -144 79
l-59 0 62 31 c77 39 159 118 190 183 20 43 21 54 12 97 -49 227 -289 332 -661
289 -47 -5 -105 -13 -129 -16 -35 -5 -43 -4 -39 7 3 8 12 14 20 13 9 -1 35 51
78 155 114 280 124 313 124 426 1 134 -15 168 -99 210 -58 29 -65 30 -190 29
-204 -1 -336 -39 -420 -121 -67 -65 -78 -105 -86 -303 -5 -139 -12 -195 -32
-270 -31 -119 -93 -267 -117 -280 -25 -13 -240 -28 -520 -35 -251 -7 -323 -15
-406 -46 -51 -19 -140 -92 -162 -133 -9 -19 -12 -19 -79 11 -85 38 -199 63
-290 63 -111 0 -229 -17 -273 -40 -101 -51 -185 -194 -239 -404 -41 -158 -80
-235 -161 -316 -111 -111 -278 -179 -480 -195 -161 -13 -294 -61 -374 -135
-63 -59 -86 -110 -86 -197 0 -127 62 -260 196 -423 186 -225 408 -536 576
-805 164 -263 376 -659 483 -899 l39 -89 -44 -39 c-116 -103 -276 -184 -410
-208 -36 -6 -99 -18 -140 -25 -41 -8 -116 -16 -166 -20 -169 -11 -267 -47
-348 -128 -98 -98 -138 -219 -117 -356 16 -101 67 -234 117 -305 241 -339 366
-564 491 -886 53 -136 77 -170 139 -200 64 -31 137 -24 230 23 205 103 302
230 292 383 -3 55 -14 83 -86 226 -118 234 -152 346 -152 500 0 254 147 457
480 664 99 62 2501 1364 2516 1364 4 0 -11 -19 -33 -43 -21 -23 -90 -118 -152
-210 -141 -210 -199 -273 -326 -355 -107 -70 -150 -103 -290 -225 -106 -93
-153 -122 -229 -142 -185 -48 -310 -193 -373 -433 -35 -136 -38 -299 -6 -357
28 -50 48 -73 95 -109 35 -26 40 -27 88 -17 127 27 208 99 580 516 255 285
414 437 575 549 105 74 167 138 275 281 108 145 163 198 262 250 91 48 185 70
401 95 204 24 318 47 406 85 61 25 112 30 185 18 37 -6 38 -7 33 -42 -2 -20
-21 -64 -41 -98 -49 -84 -81 -171 -122 -331 -18 -74 -45 -160 -60 -193 -31
-68 -110 -149 -147 -149 -13 0 -75 18 -138 41 -67 24 -141 43 -179 46 -132 11
-290 -54 -455 -186 -73 -59 -117 -86 -162 -102 -81 -27 -139 -66 -174 -119
-30 -45 -34 -64 -30 -140 4 -58 24 -96 61 -115 40 -21 76 -19 176 10 236 68
438 86 526 47 26 -11 52 -30 59 -43 13 -25 16 -82 5 -116 -7 -21 -283 -179
-891 -510 -957 -522 -2303 -1215 -2519 -1298 -263 -101 -404 -272 -490 -595
-37 -136 -58 -290 -54 -385 3 -72 6 -87 28 -110 55 -60 149 -72 238 -30 34 16
90 60 157 124 256 246 689 530 2380 1556 325 197 758 461 963 587 205 126 397
238 427 249 73 26 111 24 174 -7 55 -28 92 -70 139 -159 25 -46 27 -59 25
-160 -4 -265 -102 -495 -302 -707 -281 -297 -698 -505 -1370 -683 -138 -37
-201 -65 -201 -92 0 -29 32 -83 68 -114 120 -106 489 -175 792 -150 344 29
700 145 1046 341 850 480 1148 1021 915 1659 -57 155 -145 305 -285 485 l-75
95 47 22 c203 91 553 243 1047 454 845 360 1270 545 1646 715 184 84 491 219
683 301 459 197 495 216 577 298 121 121 171 260 171 476 1 198 -47 390 -115
464 -48 52 -136 65 -238 35 -66 -19 -260 -118 -356 -182 -40 -26 -136 -104
-215 -173 -297 -261 -381 -317 -818 -549 -524 -278 -691 -370 -2290 -1262
-305 -170 -361 -198 -397 -198 -53 0 -78 23 -88 79 -6 38 -3 48 43 119 27 42
95 158 151 257 125 218 279 452 397 600 48 61 194 216 324 345 286 284 295
298 295 455 0 92 -3 105 -31 160 -24 49 -39 64 -76 83 -174 88 -434 -12 -719
-276 -131 -120 -251 -196 -494 -310 -224 -105 -289 -121 -645 -152 -231 -21
-379 -42 -459 -66 -25 -7 -47 -12 -49 -10 -7 8 928 491 1568 810 1035 516
1351 658 1516 681 119 16 193 -40 269 -202 50 -106 60 -128 172 -339 123 -235
209 -319 323 -319 68 1 116 26 212 114 151 139 218 277 218 452 0 133 -24 205
-157 474 -82 167 -135 288 -172 396 -29 86 -69 185 -89 219 -74 124 -172 198
-299 225 -195 41 -383 -14 -560 -165 -76 -65 -83 -74 -83 -108 -1 -55 -32
-114 -81 -154 -90 -71 -308 -187 -369 -195 -51 -7 -73 23 -90 124 -37 231
-287 985 -380 1148 -43 76 -125 263 -176 404 -60 164 -93 306 -97 416 -4 110
-34 182 -106 253 -54 53 -185 123 -276 147 -80 20 -178 19 -243 -5z m-1252
-4451 c-201 -109 -188 -103 -155 -74 31 26 201 115 220 115 5 0 -24 -19 -65
-41z"/>
<path d="M67903 90995 c-104 -28 -162 -85 -183 -179 -15 -67 3 -163 89 -471
165 -599 188 -811 104 -968 -31 -55 -69 -87 -158 -128 -94 -44 -158 -59 -261
-59 -124 0 -185 20 -439 145 -566 278 -876 496 -1355 950 -185 175 -287 252
-425 321 -152 75 -274 99 -383 74 -147 -34 -259 -151 -323 -337 -10 -31 -46
-203 -79 -382 -155 -851 -291 -1191 -663 -1656 -462 -579 -871 -830 -1447
-886 -213 -20 -510 -1 -795 52 -263 49 -281 51 -365 46 -141 -7 -226 -58 -271
-161 -29 -66 -31 -189 -5 -297 23 -96 72 -164 223 -310 264 -255 592 -402
1003 -450 148 -17 462 -7 612 20 427 75 874 243 1162 436 134 89 225 166 341
286 292 304 469 640 765 1454 244 672 265 721 323 772 112 98 246 67 775 -181
97 -45 276 -135 397 -198 121 -63 339 -177 485 -253 313 -163 335 -176 360
-218 31 -51 26 -96 -24 -191 -254 -485 -637 -769 -1187 -880 -272 -55 -536
-76 -973 -78 l-299 -1 -56 -38 c-136 -91 -135 -203 6 -379 97 -122 361 -357
484 -431 544 -326 1405 -18 2427 869 102 88 134 102 180 78 41 -21 66 -66 96
-171 82 -293 125 -713 126 -1235 1 -599 41 -886 150 -1072 52 -88 178 -221
236 -249 61 -29 142 -23 244 20 136 57 226 143 256 248 21 71 16 147 -24 373
-75 426 -100 813 -80 1275 7 171 13 398 12 505 0 168 -3 207 -23 283 l-22 88
25 43 c53 90 148 149 209 130 39 -12 960 -475 1015 -511 74 -47 148 -118 180
-173 21 -35 27 -58 27 -105 0 -66 17 -30 -431 -895 -242 -468 -711 -1419
-1009 -2045 -142 -297 -316 -660 -387 -808 -120 -245 -131 -273 -135 -335 -4
-60 -2 -73 24 -122 36 -69 119 -134 229 -180 100 -41 309 -94 438 -110 118
-15 295 -8 381 16 128 34 260 124 339 232 57 78 101 177 181 407 412 1182 874
2168 1563 3334 150 253 186 360 186 541 0 94 -4 127 -23 180 -33 93 -86 175
-161 251 -144 143 -288 217 -665 340 -460 150 -565 196 -1045 456 -369 200
-565 304 -822 437 -104 54 -188 100 -188 102 0 3 13 30 29 62 60 119 108 281
136 457 25 154 31 500 11 669 -53 461 -219 836 -444 1010 -188 144 -504 228
-679 181z"/>
<path d="M52083 90306 c-162 -60 -274 -209 -303 -404 -5 -37 -37 -242 -69
-457 -35 -224 -69 -494 -81 -635 -12 -135 -30 -315 -41 -400 -10 -85 -19 -192
-19 -236 0 -223 122 -375 370 -460 44 -15 84 -19 200 -19 173 1 249 15 459 87
l146 51 150 -6 c574 -22 2673 -353 3218 -508 161 -45 192 -61 216 -107 78
-153 273 -258 502 -269 123 -7 187 5 272 50 110 57 196 154 270 302 57 115 84
209 122 425 64 362 130 620 200 779 75 170 152 500 140 600 -25 218 -167 378
-428 480 -71 28 -87 31 -197 31 -122 0 -215 -10 -355 -36 l-80 -15 -365 70
c-1274 246 -2496 438 -3350 527 -131 13 -185 24 -265 51 -222 76 -447 123
-580 122 -48 0 -90 -7 -132 -23z m1272 -652 c940 -110 1890 -274 2750 -474
121 -28 267 -62 325 -75 125 -28 185 -52 233 -95 53 -47 65 -93 42 -175 -26
-99 -91 -145 -203 -145 -24 0 -202 31 -395 70 -1082 214 -2064 370 -2897 460
-302 32 -349 43 -441 103 -56 36 -89 83 -89 126 0 152 144 260 325 245 28 -2
185 -20 350 -40z m-150 -889 c621 -75 1115 -146 1710 -246 661 -110 1479 -270
1538 -300 50 -26 77 -82 76 -164 0 -142 -62 -210 -189 -208 -36 1 -492 69
-1015 153 -1738 276 -2469 391 -2549 400 -89 11 -131 31 -164 81 -21 30 -23
43 -20 109 5 91 38 164 89 199 32 22 40 23 134 17 55 -3 231 -21 390 -41z"/>
<path d="M48428 86220 c-3621 -108 -7147 -730 -10538 -1860 -2278 -758 -4433
-1719 -6525 -2908 -2438 -1385 -4733 -3066 -6803 -4981 -376 -347 -488 -455
-931 -895 -877 -871 -1582 -1638 -2340 -2546 -4019 -4814 -6730 -10545 -7886
-16674 -309 -1638 -506 -3290 -590 -4951 -32 -629 -37 -824 -42 -1640 -8
-1302 27 -2241 127 -3425 484 -5664 2260 -11090 5223 -15950 1117 -1832 2435
-3617 3851 -5215 540 -609 902 -992 1556 -1646 759 -760 1288 -1252 2030
-1890 2881 -2478 6132 -4498 9620 -5976 4028 -1707 8340 -2677 12730 -2863
971 -41 2224 -41 3185 0 5885 253 11568 1896 16660 4818 2314 1328 4474 2901
6460 4706 740 674 1684 1614 2365 2356 1824 1989 3439 4194 4782 6530 257 446
545 971 748 1365 51 99 128 248 170 330 100 194 399 808 530 1090 2040 4386
3182 9074 3390 13915 41 965 41 2205 0 3180 -332 7804 -3123 15246 -8009
21350 -851 1063 -1657 1965 -2640 2953 -864 869 -1622 1565 -2524 2319 -5483
4578 -12149 7447 -19222 8272 -1068 125 -2140 203 -3235 236 -310 9 -1828 9
-2142 0z m1832 -1381 c6246 -134 12266 -1888 17585 -5122 2823 -1717 5384
-3817 7666 -6287 469 -508 1007 -1131 1475 -1710 3340 -4125 5704 -8939 6918
-14085 504 -2136 805 -4315 906 -6545 40 -891 42 -2207 5 -3065 -90 -2071
-330 -3967 -751 -5945 -197 -923 -459 -1940 -721 -2800 -36 -118 -73 -242 -83
-275 -10 -33 -50 -159 -88 -280 -838 -2608 -1948 -5056 -3352 -7395 -1944
-3238 -4406 -6157 -7280 -8631 -2749 -2366 -5855 -4302 -9180 -5721 -3886
-1658 -8047 -2603 -12280 -2788 -946 -41 -2214 -41 -3160 0 -5538 242 -10913
1777 -15742 4496 -3573 2012 -6794 4653 -9479 7774 -2367 2751 -4288 5831
-5711 9155 -221 517 -414 1001 -624 1562 -1111 2982 -1813 6119 -2083 9318
-146 1715 -164 3505 -56 5255 338 5440 1938 10728 4673 15444 1537 2651 3399
5078 5557 7242 509 510 836 824 1295 1240 2924 2652 6241 4783 9850 6331 4137
1774 8595 2735 13135 2832 453 10 1078 10 1525 0z"/>
<path d="M47579 78646 c-2 -2 -143 -6 -314 -10 -170 -3 -350 -9 -400 -11 -49
-3 -196 -10 -325 -15 -2904 -124 -6045 -550 -8860 -1201 -3232 -748 -6199
-1824 -8735 -3169 -348 -185 -1170 -647 -1307 -736 l-38 -24 0 -13800 c0
-12365 2 -13811 15 -13916 46 -347 175 -1049 299 -1624 570 -2640 1483 -5385
2644 -7950 1412 -3119 3192 -5950 5256 -8360 555 -648 974 -1100 1625 -1750
704 -704 1210 -1168 1914 -1757 2749 -2298 5807 -4009 9294 -5197 l252 -86
288 99 c2468 846 4647 1914 6728 3296 1620 1076 3046 2246 4455 3655 1073
1072 2023 2171 2948 3412 1524 2043 2844 4301 3960 6773 1118 2479 2022 5196
2587 7775 115 526 248 1231 305 1623 20 138 20 149 20 13977 l0 13838 -337
195 c-1197 690 -2234 1205 -3513 1744 -4504 1900 -10202 3051 -15905 3213
-321 9 -2846 15 -2856 6z m3196 -1865 c132 -6 346 -15 475 -21 1940 -87 4035
-315 5975 -650 190 -33 350 -60 355 -60 6 0 10 -4 10 -8 0 -5 -23 -14 -51 -21
-77 -20 -312 -142 -419 -218 -187 -134 -358 -330 -455 -522 -64 -128 -135
-343 -165 -501 -59 -303 -63 -880 -20 -2520 14 -519 39 -1366 46 -1597 l7
-193 -169 0 c-741 0 -1506 82 -2009 215 -313 82 -607 212 -787 347 -469 354
-775 787 -932 1318 -13 47 -104 515 -201 1040 -100 543 -185 979 -197 1010
-34 89 -106 229 -156 305 -57 87 -170 199 -244 243 -165 98 -401 156 -798 198
-238 25 -359 9 -515 -66 -340 -165 -621 -633 -809 -1350 -110 -420 -156 -760
-156 -1154 0 -493 74 -901 237 -1311 165 -415 381 -735 715 -1060 410 -400
916 -740 1648 -1106 616 -308 1170 -523 1660 -643 535 -130 1373 -213 2367
-232 l343 -7 5 -31 c14 -81 135 -1233 139 -1316 6 -122 33 -209 96 -303 90
-135 258 -272 480 -390 421 -226 804 -165 1236 195 201 168 361 394 447 633
70 197 202 782 273 1213 5 31 7 32 52 32 26 0 137 7 247 15 1171 87 2112 344
2850 777 652 383 1282 806 1537 1034 267 238 682 872 1037 1584 319 641 491
1285 508 1913 3 119 10 217 15 217 14 0 613 -259 909 -393 638 -289 1280 -607
1852 -919 l127 -69 0 -13228 0 -13228 -51 -304 c-28 -167 -52 -305 -54 -307
-2 -2 -72 8 -156 22 -774 129 -2368 238 -4254 291 -110 3 -276 7 -370 10 -476
14 -2045 37 -3890 55 -5164 52 -13056 24 -18930 -65 -988 -15 -1839 -30 -2270
-40 -132 -3 -454 -10 -715 -16 -4103 -87 -6961 -230 -7909 -394 -79 -14 -146
-24 -147 -22 -6 5 -49 242 -94 517 l-40 245 2 13234 3 13233 145 80 c412 226
1011 527 1531 771 317 148 294 141 265 75 -31 -70 -100 -282 -125 -383 -65
-265 -92 -504 -92 -833 0 -493 53 -858 182 -1244 203 -611 553 -1093 1134
-1564 347 -281 782 -553 1292 -807 773 -387 1526 -638 2178 -726 602 -81 1352
-142 1953 -158 147 -3 255 -10 259 -16 9 -15 132 -1123 143 -1292 13 -195 39
-278 126 -396 135 -184 463 -373 741 -425 133 -25 348 -15 468 20 350 105 679
377 838 693 53 104 72 157 127 353 99 354 159 615 210 918 17 95 30 176 30
181 0 5 48 11 108 15 1127 74 2101 328 2977 775 271 139 417 225 695 412 378
255 649 476 950 778 428 428 704 818 971 1366 450 926 621 1839 499 2663 -89
599 -350 999 -795 1218 -157 77 -276 106 -435 106 -210 0 -379 -57 -590 -200
-340 -229 -578 -495 -669 -748 l-32 -86 1 -678 c0 -735 -3 -803 -56 -1020
-118 -481 -442 -959 -924 -1361 -685 -572 -1593 -909 -2676 -992 l-51 -4 -6
1586 c-5 1405 -11 1877 -32 2371 -3 74 -10 248 -15 385 -30 747 -74 1368 -115
1620 -13 80 -41 190 -59 236 -6 13 14 19 126 38 2193 367 4337 580 6563 651
365 11 3182 5 3470 -9z m8325 -1037 c1031 -222 2136 -508 3140 -810 316 -96
694 -215 702 -223 4 -3 -6 -44 -22 -91 l-30 -85 0 -691 c0 -656 -1 -698 -21
-815 -63 -375 -221 -713 -488 -1049 -41 -52 -143 -163 -226 -245 -510 -510
-1145 -862 -1958 -1084 -267 -73 -766 -164 -947 -173 l-65 -3 -6 1510 c-3 831
-9 1544 -13 1585 -3 41 -11 170 -16 285 -39 795 -116 1423 -202 1647 -33 87
-106 205 -170 274 l-43 47 30 -7 c17 -3 167 -35 335 -72z m-20880 -114 c0 -6
-9 -45 -20 -88 -32 -129 -52 -415 -70 -1032 -13 -450 -10 -1273 5 -1570 31
-566 55 -1693 55 -2552 l0 -488 -334 0 c-1222 0 -2050 159 -2541 488 -192 128
-441 357 -594 545 -155 192 -301 450 -375 665 -61 177 -37 57 -311 1547 -63
347 -123 650 -132 675 -48 133 -150 311 -240 416 l-43 52 227 82 c333 120
1188 404 1568 520 829 254 1634 471 2645 713 172 41 160 39 160 27z m15965
-32190 c896 -9 1689 -21 2245 -35 619 -15 643 -16 1440 -40 261 -8 531 -17
600 -20 69 -3 321 -12 560 -20 239 -8 496 -17 570 -20 74 -3 477 -17 895 -30
418 -13 832 -27 920 -30 88 -3 313 -10 500 -15 187 -6 489 -15 670 -21 433
-14 2235 -19 2725 -9 990 23 2058 82 2447 136 l42 6 -50 -193 c-390 -1507
-914 -3109 -1494 -4564 -1929 -4841 -4687 -8943 -8107 -12058 -2408 -2193
-5132 -3900 -8153 -5109 -417 -167 -1064 -408 -1095 -408 -10 0 -145 47 -301
104 -1767 645 -3418 1447 -5009 2434 -325 202 -804 515 -1055 691 l-80 56 40
3 c1240 82 3146 435 4745 878 1320 366 2742 886 4080 1492 798 361 1731 828
2250 1125 1876 1074 3188 2441 3954 4119 474 1040 650 2195 530 3493 -83 906
-339 1672 -753 2253 -318 447 -813 961 -1296 1348 -375 301 -685 503 -1065
693 -670 335 -1300 529 -2245 691 -363 62 -852 162 -1115 229 -375 94 -574
165 -686 242 -157 108 -304 324 -388 570 -139 411 -177 905 -110 1479 18 159
73 489 85 512 9 17 50 18 597 21 1539 6 2202 6 3107 -3z m-6910 -92 c3 -7 43
-437 90 -956 l85 -943 36 -109 c66 -206 219 -575 434 -1049 122 -270 137 -301
207 -415 348 -573 970 -980 1893 -1241 316 -90 443 -111 1175 -200 379 -46
735 -91 790 -100 832 -134 1528 -400 2091 -801 477 -339 845 -895 1039 -1571
47 -163 105 -433 129 -603 62 -431 82 -1028 45 -1395 -74 -752 -405 -1465
-1005 -2165 -130 -152 -465 -487 -633 -634 -524 -456 -1088 -848 -1869 -1295
-1490 -853 -2990 -1495 -4537 -1940 -609 -175 -1159 -302 -1885 -436 -1821
-335 -3043 -590 -3649 -761 -201 -57 -518 -179 -776 -299 -206 -96 -445 -242
-604 -369 -73 -59 -85 -66 -100 -54 -9 8 -52 45 -96 84 -3403 2956 -6183 6863
-8182 11499 -690 1601 -1285 3293 -1748 4974 -47 168 -82 307 -79 310 4 5 503
30 1734 90 239 12 795 39 1235 61 440 22 935 47 1100 55 165 8 570 29 900 45
595 31 994 43 1735 55 212 3 648 10 970 15 570 10 1823 30 3055 50 336 5 738
12 895 15 472 8 880 15 1840 30 1296 20 1544 25 1810 30 129 3 568 10 975 16
713 10 871 13 888 17 4 1 10 -4 12 -10z"/>
<path d="M52105 68545 c-630 -69 -1328 -376 -2053 -903 -273 -199 -853 -672
-1117 -911 -469 -425 -745 -720 -915 -974 -346 -518 -551 -1280 -640 -2382
-30 -371 -42 -721 -47 -1380 l-5 -700 -42 3 c-127 7 -964 90 -1351 132 -1583
175 -2676 362 -3421 584 -358 107 -582 210 -916 423 -509 323 -799 555 -876
702 -67 127 -132 430 -192 896 -52 409 -94 571 -195 763 -92 172 -185 260
-380 356 -133 66 -248 107 -386 138 -92 20 -129 23 -324 23 -168 -1 -241 -5
-307 -18 -413 -82 -668 -265 -829 -592 l-58 -120 -121 -617 c-83 -425 -128
-634 -145 -672 -123 -278 -416 -592 -801 -858 -734 -508 -1738 -858 -3474
-1213 -1228 -251 -2023 -440 -2340 -554 -182 -66 -491 -261 -626 -396 -270
-268 -394 -571 -355 -868 23 -169 118 -395 231 -549 242 -330 823 -402 1751
-218 499 99 1023 250 1759 505 1746 607 3257 1235 4669 1941 l464 232 531
-382 c292 -211 569 -412 616 -447 488 -370 1311 -641 2452 -809 398 -58 1419
-175 1868 -214 531 -46 622 -51 995 -51 402 0 451 4 760 66 276 55 606 154
899 270 82 33 150 58 151 57 1 -2 -20 -1011 -46 -2243 -26 -1232 -48 -2271
-48 -2309 l-1 -68 -57 7 c-87 10 -1174 180 -1708 266 -2193 355 -3030 517
-3512 678 -281 94 -539 213 -718 332 -258 171 -578 545 -721 844 -30 63 -161
416 -304 820 -138 391 -262 740 -276 776 -21 57 -39 81 -118 160 -228 230
-438 331 -771 368 -240 28 -595 -46 -852 -176 -274 -138 -477 -312 -601 -514
-146 -238 -174 -421 -152 -991 21 -533 -10 -844 -101 -1047 -112 -247 -410
-551 -758 -771 -489 -310 -1114 -556 -2056 -810 -247 -67 -497 -134 -555 -150
-58 -16 -298 -81 -535 -145 -1810 -490 -1810 -489 -1957 -543 -843 -311 -1203
-649 -1235 -1158 -27 -453 182 -707 667 -809 335 -70 750 -48 1420 76 1063
198 2989 753 3975 1147 646 258 1488 702 2605 1375 l175 105 490 -248 c1506
-762 1509 -763 1680 -818 700 -225 2383 -583 3295 -701 389 -50 474 -56 830
-56 441 1 923 33 1554 105 143 16 260 29 261 27 1 -1 -7 -159 -16 -352 -10
-192 -34 -676 -53 -1075 -20 -399 -38 -759 -41 -800 -2 -41 -9 -187 -15 -325
-6 -137 -13 -273 -16 -302 l-5 -52 -62 -5 c-34 -3 -429 -15 -877 -26 -448 -11
-882 -22 -965 -25 -82 -3 -319 -10 -525 -15 -1203 -32 -1507 -42 -1710 -55
-124 -8 -470 -31 -770 -50 -535 -34 -1635 -106 -2245 -145 -799 -52 -1395
-130 -1905 -251 -360 -85 -619 -214 -827 -413 -209 -199 -278 -331 -304 -576
-19 -186 27 -546 86 -667 84 -170 367 -293 800 -347 213 -27 407 -36 759 -36
503 0 882 23 1681 100 2354 228 5497 308 10955 279 3212 -17 7361 -18 7759 -1
709 29 1150 93 1561 228 522 171 837 435 960 804 65 194 -19 446 -248 747 -87
115 -127 150 -227 198 -337 165 -1101 263 -2370 306 -561 19 -2115 16 -3790
-7 -422 -5 -2653 -29 -3847 -40 l-708 -7 0 174 c0 96 7 512 15 924 16 743 14
1219 -6 1644 -5 117 -8 216 -5 218 2 3 87 -16 188 -41 550 -136 1063 -196
1573 -183 748 20 1398 167 2170 492 1035 435 2165 1109 3414 2037 96 72 180
132 187 135 7 2 322 -189 701 -426 439 -274 716 -440 764 -459 284 -113 1427
-401 2164 -546 1020 -199 1976 -325 3270 -431 834 -67 1319 -59 1815 31 484
88 776 293 960 676 218 452 105 792 -335 1008 -446 218 -1519 401 -3650 620
-683 70 -888 98 -1237 166 -1363 267 -2245 803 -2634 1599 -100 205 -102 215
-294 970 -105 416 -100 405 -264 573 -182 187 -310 258 -580 317 -95 21 -296
17 -416 -9 -329 -72 -663 -268 -940 -553 -172 -176 -286 -345 -383 -567 -25
-56 -100 -271 -167 -477 -68 -206 -140 -410 -162 -454 -141 -284 -541 -779
-992 -1230 -518 -518 -1021 -849 -1691 -1115 -587 -233 -1231 -443 -1900 -620
-763 -201 -970 -274 -1372 -480 l-193 -98 0 2654 c0 2227 2 2654 14 2654 7 0
251 -72 542 -160 291 -89 563 -171 604 -183 69 -20 96 -22 320 -22 205 0 270
4 395 24 568 87 1228 273 2420 684 862 298 1345 487 1661 652 372 194 931 549
1504 955 118 84 220 153 225 153 9 0 318 -190 1455 -893 113 -70 248 -155 300
-189 462 -305 1325 -548 2595 -730 901 -129 1636 -181 2580 -181 467 0 792 9
1120 30 1065 70 1654 355 1786 865 16 64 19 97 14 168 -9 135 -74 365 -140
497 -51 100 -182 209 -346 284 -180 83 -482 168 -799 225 -178 32 -209 34
-1525 131 -2413 178 -2377 175 -2752 225 -1665 224 -2675 716 -3061 1490 -66
134 -101 255 -191 665 -100 454 -111 488 -216 645 -142 212 -314 343 -542 411
-76 23 -106 27 -218 27 -193 0 -357 -41 -570 -143 -429 -206 -677 -463 -830
-860 -53 -136 -87 -292 -164 -746 -67 -398 -71 -414 -109 -490 -189 -373 -675
-745 -1349 -1032 -537 -229 -1110 -398 -2038 -601 -825 -180 -1362 -311 -1624
-396 -187 -61 -428 -157 -773 -311 -154 -68 -282 -124 -284 -124 -9 0 -3 2611
6 2725 32 381 116 753 232 1034 140 337 424 719 788 1058 82 77 402 340 740
608 489 388 617 496 720 601 298 305 453 574 506 874 21 119 14 290 -15 405
-69 265 -251 447 -516 514 -167 42 -371 51 -600 26z"/>
<path d="M78374 83660 c-187 -49 -373 -186 -505 -372 -104 -146 -240 -309
-374 -447 -168 -173 -232 -200 -343 -145 -30 15 -73 50 -102 82 -46 52 -65 86
-193 351 -136 282 -501 355 -1039 207 -204 -56 -287 -107 -334 -202 -23 -48
-26 -62 -20 -112 13 -111 77 -208 186 -282 79 -53 121 -73 244 -114 232 -77
416 -205 596 -412 155 -180 153 -194 -58 -405 -367 -365 -827 -801 -865 -821
-103 -52 -268 12 -457 177 -90 79 -619 428 -873 576 -140 82 -197 104 -313
121 -155 22 -295 -19 -405 -120 -172 -158 -225 -393 -134 -597 33 -74 109
-169 184 -230 172 -138 1366 -765 1941 -1018 371 -164 739 -305 1015 -390 273
-84 260 -82 398 -69 67 6 142 18 167 27 52 18 96 57 105 92 7 30 -10 86 -40
130 -20 31 -162 145 -214 172 -13 7 -98 79 -190 159 -344 302 -350 308 -336
370 7 34 57 84 141 140 78 52 188 140 284 227 41 37 150 128 241 201 92 73
207 170 256 217 106 100 140 115 218 98 63 -14 152 -66 215 -125 47 -44 181
-104 315 -141 33 -9 67 -19 75 -21 8 -3 -17 -16 -56 -28 -174 -56 -286 -157
-309 -278 -23 -123 109 -234 333 -279 53 -11 120 -27 147 -35 63 -20 205 -85
205 -94 0 -4 -66 -56 -147 -116 -982 -726 -1527 -1343 -1628 -1843 -13 -62
-16 -114 -12 -200 4 -106 10 -136 71 -346 192 -663 398 -1196 678 -1755 326
-652 684 -1187 1120 -1675 277 -310 373 -394 555 -485 402 -201 978 -190 1658
30 324 105 443 160 479 221 24 40 20 97 -9 138 -33 48 -81 80 -330 225 -1470
854 -2484 1764 -2941 2641 -137 262 -214 475 -268 745 l-25 125 19 97 c107
521 531 1038 1310 1595 177 126 177 126 274 121 215 -13 567 -215 607 -348 19
-64 -1 -92 -153 -216 -451 -369 -883 -750 -1317 -1163 -296 -282 -410 -441
-419 -586 -5 -99 19 -141 124 -218 98 -71 277 -162 363 -183 91 -23 245 -15
324 15 97 38 299 204 642 530 99 94 304 280 455 413 384 339 571 507 670 604
47 46 98 88 113 93 108 41 240 -26 449 -228 181 -174 243 -271 242 -381 0
-102 -35 -144 -248 -302 -568 -422 -1091 -683 -1511 -752 -196 -33 -221 -38
-268 -58 -64 -28 -97 -68 -97 -119 0 -32 7 -47 40 -83 49 -53 207 -160 319
-216 347 -173 755 -185 1192 -34 255 88 600 272 814 435 213 162 389 259 530
293 175 43 315 166 359 315 20 69 20 179 1 256 -21 83 -93 228 -150 303 -88
117 -222 204 -373 243 -42 11 -79 25 -83 32 -22 39 -170 226 -243 307 -99 110
-257 255 -368 338 -91 68 -116 107 -94 149 39 76 470 384 572 410 23 6 68 28
100 49 179 119 268 297 250 500 -27 296 -233 659 -432 759 -49 25 -71 30 -129
30 -142 0 -261 -88 -435 -320 -167 -222 -372 -454 -608 -689 -112 -111 -122
-118 -158 -118 -74 1 -167 45 -351 166 -124 82 -147 107 -140 158 6 48 63 126
134 184 98 79 218 235 287 372 94 186 81 344 -37 447 -168 147 -357 164 -576
50 -104 -54 -184 -114 -315 -234 -116 -107 -175 -148 -224 -157 -67 -13 -116
37 -152 152 -37 122 -73 163 -168 190 -93 27 -305 3 -457 -51 -11 -4 -4 6 18
25 48 41 77 98 77 153 0 122 -111 300 -312 499 l-78 77 58 51 c87 77 203 160
357 257 282 178 504 450 560 685 21 90 19 229 -5 322 -28 110 -112 267 -180
336 -127 128 -309 177 -486 130z"/>
<path d="M18810 83456 c-82 -18 -151 -58 -208 -121 -63 -69 -104 -153 -137
-281 -39 -152 -82 -234 -168 -318 -48 -48 -97 -85 -147 -111 -79 -40 -248
-164 -312 -227 -77 -77 -119 -204 -121 -373 -2 -90 1 -106 26 -160 30 -64 75
-118 119 -141 43 -22 123 -18 187 12 63 28 92 62 166 194 116 206 283 393 416
464 l35 18 62 -31 c107 -54 162 -116 162 -181 0 -44 -42 -120 -96 -175 -70
-69 -178 -142 -239 -160 -64 -18 -100 -57 -150 -160 -46 -95 -62 -185 -47
-262 14 -67 61 -168 96 -206 63 -68 169 0 269 173 15 25 111 131 214 237 155
158 196 194 235 208 86 32 163 -6 242 -118 34 -49 41 -66 44 -120 3 -55 1 -67
-25 -104 -62 -91 -241 -228 -343 -263 -71 -24 -97 -45 -139 -110 -43 -67 -78
-182 -88 -287 -4 -47 -12 -75 -25 -90 -17 -18 -19 -29 -13 -65 20 -121 55
-154 154 -144 98 9 156 42 250 144 390 423 483 512 535 512 27 0 123 -65 184
-123 72 -69 97 -121 96 -199 0 -82 -8 -95 -176 -283 -141 -158 -77 -91 -1393
-1455 -1640 -1698 -1608 -1665 -1628 -1662 -71 9 -165 91 -248 215 -68 101
-68 102 -19 203 43 87 107 168 279 349 190 199 224 247 228 323 5 69 -15 107
-78 149 -58 38 -159 44 -239 14 -116 -44 -268 -189 -413 -394 -98 -137 -174
-181 -284 -162 -57 9 -154 66 -181 106 -42 62 -8 144 90 218 62 46 131 116
183 186 20 28 88 105 151 172 135 145 158 185 152 259 -9 106 -80 174 -183
174 -152 -1 -332 -136 -528 -396 -88 -116 -130 -148 -204 -160 -59 -9 -105 10
-156 65 -75 80 -75 71 5 217 112 204 267 435 410 610 86 107 168 330 168 458
l0 50 29 -28 c73 -70 242 -47 516 69 55 23 129 48 164 54 34 7 70 15 78 18 13
5 13 3 4 -16 -37 -68 -175 -430 -196 -511 -34 -133 -70 -251 -107 -347 -52
-141 -29 -203 81 -211 79 -6 134 21 221 107 203 202 440 640 603 1114 25 71
49 132 53 137 29 28 470 153 584 166 l65 7 -77 -52 c-85 -57 -156 -130 -199
-206 -44 -77 -59 -162 -59 -339 0 -85 -5 -188 -11 -229 l-11 -73 -116 -58
c-330 -163 -637 -356 -773 -484 -112 -105 -129 -147 -108 -267 13 -78 39 -105
101 -105 57 0 352 119 641 258 13 7 7 -92 -12 -178 -24 -104 -86 -284 -141
-410 -23 -52 -58 -130 -77 -173 -56 -128 -55 -225 4 -248 45 -18 100 20 242
167 266 273 465 577 606 924 61 147 73 172 129 247 56 77 163 154 254 183 37
12 85 31 108 41 22 10 49 19 59 19 22 0 227 81 310 123 113 56 203 125 234
181 63 110 76 232 30 290 -60 77 -228 107 -375 67 -74 -21 -201 -77 -304 -136
-55 -31 -134 -35 -148 -7 -11 21 -6 40 19 67 30 34 79 149 90 214 14 75 -2
170 -34 215 -44 62 -134 79 -212 39 -24 -13 -19 -5 27 41 107 109 152 238 112
322 -28 60 -102 128 -165 152 -155 58 -347 29 -598 -89 -113 -53 -123 -56
-115 -34 4 8 12 15 20 15 10 0 14 15 14 55 0 30 7 132 16 227 12 134 13 189 5
252 -16 113 -62 204 -121 237 -35 18 -153 16 -225 -5 -97 -29 -256 -110 -311
-159 -113 -102 -134 -203 -77 -377 17 -52 37 -122 44 -155 17 -73 18 -388 2
-426 -7 -16 -30 -35 -60 -49 -55 -26 -359 -138 -543 -200 -145 -49 -230 -93
-289 -150 -43 -41 -91 -128 -91 -164 0 -14 -5 -17 -22 -12 -13 4 -59 9 -103
12 -108 9 -218 -13 -354 -71 -214 -90 -251 -166 -251 -519 0 -221 -10 -279
-63 -381 -65 -122 -220 -247 -396 -319 -107 -44 -185 -93 -250 -158 -110 -110
-133 -214 -74 -340 49 -105 149 -201 343 -331 420 -281 772 -565 1124 -907
174 -169 416 -428 416 -445 0 -20 -100 -158 -158 -218 -31 -32 -78 -74 -104
-93 -60 -44 -274 -155 -379 -195 -115 -44 -223 -120 -263 -183 -70 -110 -89
-209 -62 -315 39 -151 146 -292 321 -421 60 -45 146 -112 190 -150 119 -101
359 -350 458 -476 102 -128 144 -158 222 -158 69 0 118 26 196 104 168 166
218 332 144 469 -15 28 -70 92 -122 143 -353 347 -424 621 -248 955 47 89 127
202 207 290 93 105 1967 2043 1974 2043 2 0 -8 -25 -22 -56 -13 -31 -49 -142
-80 -247 -66 -229 -110 -325 -199 -432 -74 -89 -134 -175 -215 -310 -67 -112
-105 -153 -189 -209 -184 -123 -250 -362 -186 -670 29 -140 82 -214 179 -251
72 -28 108 -16 186 63 56 57 78 91 147 227 44 88 124 257 178 375 156 347 263
540 404 729 80 108 91 130 151 306 63 187 100 254 181 335 77 77 162 127 373
220 162 71 284 140 347 197 38 35 87 56 156 67 62 11 68 -7 43 -136 -18 -90
-20 -134 -18 -348 l3 -245 -27 -55 c-49 -100 -36 -95 -226 -96 -190 0 -211 -5
-322 -79 -84 -56 -142 -119 -231 -252 -37 -55 -83 -111 -101 -124 -97 -66
-158 -156 -158 -234 0 -57 42 -140 82 -165 58 -35 64 -33 297 108 300 182 471
194 496 35 l7 -42 -173 -183 c-506 -536 -902 -942 -1544 -1584 -661 -661 -890
-883 -1026 -993 -168 -138 -245 -307 -256 -566 -9 -209 35 -492 88 -567 88
-123 278 -45 372 154 127 266 463 679 1792 2198 325 371 688 788 806 925 119
138 235 267 259 288 117 107 229 100 361 -21 51 -47 59 -60 82 -134 37 -117
47 -186 47 -314 0 -191 -36 -330 -137 -526 -164 -317 -488 -632 -974 -946
-192 -125 -247 -166 -261 -198 -10 -21 -8 -28 18 -55 69 -73 174 -96 365 -79
595 51 1167 417 1651 1055 206 274 320 520 356 772 46 333 -76 654 -358 933
-87 87 -223 194 -334 265 l-60 38 31 26 c16 14 117 103 224 197 107 93 419
363 694 599 596 512 954 822 1166 1011 85 76 236 211 335 299 98 88 293 259
433 380 318 274 351 307 400 405 93 186 77 399 -49 655 -149 304 -265 345
-481 169 -130 -106 -254 -258 -387 -476 -210 -344 -258 -403 -616 -768 -326
-331 -743 -767 -1361 -1425 -778 -828 -724 -774 -778 -775 -42 0 -61 14 -81
59 -18 39 -18 42 2 118 12 43 41 170 66 283 121 548 241 868 472 1256 77 128
98 191 98 294 1 100 -24 165 -93 242 -55 62 -99 76 -188 61 -103 -18 -185 -64
-278 -157 -90 -89 -141 -158 -237 -316 -35 -58 -83 -132 -107 -165 -53 -74
-321 -339 -408 -405 -85 -64 -219 -132 -433 -220 -205 -84 -334 -145 -422
-201 -145 -93 1643 1662 2127 2086 123 109 243 198 310 233 37 19 66 26 111
26 56 1 67 -3 119 -39 32 -21 88 -73 124 -115 111 -126 363 -365 430 -408 143
-93 247 -76 339 57 163 233 189 462 75 671 -46 85 -82 128 -234 281 -142 143
-238 254 -326 379 -178 251 -366 324 -617 240 -131 -43 -267 -162 -353 -307
-41 -70 -42 -72 -36 -145 7 -92 -6 -120 -109 -238 -96 -108 -168 -175 -212
-197 -53 -25 -78 -9 -122 79 -43 87 -204 333 -331 509 -126 173 -368 476 -393
491 -26 16 -163 172 -265 303 -126 161 -208 298 -236 395 -7 25 -27 66 -46 91
-63 88 -137 129 -277 154 -104 18 -160 18 -236 1z m-15 -4698 c-143 -150 -139
-147 -125 -118 12 24 186 200 198 200 3 0 -30 -37 -73 -82z"/>
<path d="M88571 72815 c-110 -25 -213 -85 -396 -232 -484 -388 -1040 -729
-1608 -988 l-127 -58 -31 29 c-50 47 -146 201 -179 285 -16 43 -35 111 -41
151 -6 40 -17 103 -25 139 -8 37 -14 94 -14 127 0 159 -51 302 -139 385 -96
91 -188 124 -318 113 -140 -11 -273 -69 -432 -185 -224 -164 -604 -362 -846
-441 -112 -36 -172 -117 -162 -219 8 -94 103 -260 192 -339 74 -65 107 -77
210 -77 l91 0 164 82 c189 95 280 127 401 143 292 39 531 -113 751 -475 57
-93 1221 -2256 1343 -2494 l17 -35 -53 46 c-30 25 -124 92 -209 149 -186 124
-283 214 -346 318 -56 92 -105 156 -219 287 -104 119 -128 159 -149 244 -34
134 -128 242 -270 309 -156 75 -396 113 -489 77 -95 -36 -157 -104 -157 -171
0 -107 107 -235 460 -553 327 -294 481 -456 627 -662 74 -103 96 -124 243
-232 257 -190 318 -304 355 -668 20 -197 38 -290 72 -379 42 -106 41 -261 0
-261 -8 0 -62 25 -120 55 -127 67 -153 76 -327 121 -74 19 -163 48 -197 64
-65 32 -143 109 -143 141 0 10 14 55 31 101 64 170 74 236 54 332 -25 118 -74
209 -201 369 -33 43 -67 97 -74 120 -28 94 -83 172 -145 205 -40 21 -141 20
-182 -1 -72 -38 -78 -82 -33 -250 77 -291 80 -468 10 -539 -30 -30 -83 -38
-132 -19 -24 9 -137 207 -486 851 -523 968 -1205 2301 -1301 2545 -69 174
-129 261 -235 341 -151 114 -372 190 -651 224 -145 18 -213 -2 -246 -73 -26
-58 -24 -130 5 -193 15 -32 63 -92 126 -159 250 -263 503 -654 1543 -2380 242
-401 521 -863 620 -1025 197 -321 226 -380 227 -453 0 -94 -55 -166 -174 -227
l-66 -33 -122 6 c-265 12 -488 112 -694 309 -279 268 -482 674 -650 1298 -30
112 -64 220 -76 238 -18 30 -25 33 -51 28 -75 -15 -143 -101 -183 -233 -175
-572 -33 -1225 413 -1906 262 -399 530 -628 849 -723 120 -36 317 -44 449 -19
237 44 498 174 733 366 l62 51 36 -78 c44 -96 291 -678 604 -1419 260 -616
413 -968 584 -1348 64 -142 181 -412 261 -599 80 -188 162 -375 182 -416 68
-139 184 -238 337 -289 75 -25 93 -27 251 -27 142 0 184 3 257 22 277 69 319
184 173 477 -80 161 -156 272 -300 435 -242 275 -330 408 -567 865 -171 328
-410 769 -853 1570 -579 1049 -565 1022 -565 1064 0 46 29 76 83 85 34 6 46 2
115 -42 42 -27 154 -93 247 -147 449 -258 688 -445 1018 -797 133 -142 155
-161 224 -195 72 -36 83 -38 168 -38 82 0 97 3 156 33 59 28 69 37 87 80 80
187 -3 405 -269 709 -141 160 -206 264 -322 518 -97 212 -115 289 -142 620
-19 235 -38 376 -64 469 -10 37 -16 64 -13 61 3 -3 99 -186 214 -408 412 -793
978 -1943 1143 -2322 105 -241 143 -396 116 -478 -18 -54 -91 -114 -199 -163
-54 -25 -115 -54 -137 -66 -22 -11 -101 -52 -175 -91 -266 -139 -344 -214
-344 -332 0 -61 23 -108 96 -192 141 -166 292 -243 474 -243 123 0 215 28 407
126 219 111 313 151 482 208 161 54 251 104 317 174 82 87 118 188 118 327 0
173 -67 328 -203 473 -44 46 -55 52 -90 52 -92 0 -167 83 -282 311 -59 118
-68 164 -37 192 10 9 73 27 143 41 287 58 957 282 1134 381 141 78 485 206
645 240 38 8 109 16 158 18 74 3 100 8 148 32 79 39 142 105 192 206 54 106
72 174 72 269 -1 163 -98 298 -301 416 -155 91 -249 228 -289 422 -25 125
-102 342 -142 400 -52 76 -177 154 -321 202 -63 20 -75 21 -145 11 -98 -14
-156 -49 -190 -111 -21 -39 -23 -55 -20 -121 5 -88 15 -105 119 -214 155 -162
288 -378 325 -528 l17 -68 -49 -51 c-89 -91 -180 -126 -241 -94 -43 22 -99 90
-133 161 -40 84 -73 210 -66 253 8 50 -13 90 -89 171 -124 131 -263 176 -425
136 -77 -19 -100 -43 -100 -103 0 -43 52 -139 110 -204 69 -77 274 -453 300
-547 24 -89 -11 -151 -112 -202 -112 -57 -202 -58 -267 -3 -35 29 -109 177
-141 281 -11 37 -24 104 -27 148 -3 46 -13 95 -24 116 -31 62 -141 153 -247
205 -54 26 -107 59 -118 73 -19 22 -31 26 -97 29 -70 4 -76 2 -106 -24 -28
-25 -33 -39 -42 -103 -14 -98 9 -174 91 -301 72 -114 256 -454 282 -522 10
-26 18 -64 18 -82 0 -30 -8 -41 -57 -80 -32 -26 -91 -63 -131 -83 -88 -44
-160 -49 -233 -15 -86 40 -118 96 -1191 2097 -443 825 -860 1602 -928 1727
-85 160 -120 233 -115 247 18 57 148 135 295 177 l90 26 34 -22 c85 -52 178
-180 307 -421 100 -188 123 -225 163 -267 36 -39 95 -72 128 -72 67 1 168 86
188 159 42 150 -33 351 -227 612 -44 60 -86 123 -92 141 -16 45 -14 133 5 176
28 69 135 162 186 162 72 0 121 -53 167 -179 19 -53 59 -126 105 -195 40 -61
101 -163 135 -226 35 -63 77 -130 94 -149 95 -101 242 -87 307 29 71 129 -6
380 -203 654 -64 90 -81 121 -89 166 -20 110 32 190 146 226 l57 18 75 -75
c148 -145 313 -347 477 -585 57 -82 94 -125 149 -169 95 -76 168 -122 236
-150 l54 -22 -35 -20 c-80 -47 -108 -193 -89 -455 6 -90 9 -198 5 -240 l-6
-77 -50 42 c-220 187 -303 252 -452 350 -93 63 -196 135 -228 161 -125 101
-191 101 -237 -2 -50 -111 8 -249 218 -512 158 -197 440 -460 705 -655 l109
-80 -5 -260 c-5 -247 -18 -388 -38 -410 -5 -5 -9 0 -9 14 0 85 -81 253 -160
331 -68 68 -129 101 -246 134 -95 27 -270 95 -309 120 -18 12 -25 32 -39 128
-79 515 -199 922 -303 1020 -35 33 -97 56 -160 59 -66 3 -87 -6 -108 -45 -17
-31 -18 -46 -6 -236 11 -182 31 -379 47 -452 7 -34 0 -35 -68 -5 -147 66 -334
205 -569 423 -66 61 -127 97 -186 109 -27 5 -37 2 -58 -19 -15 -16 -25 -36
-25 -55 0 -42 142 -321 237 -466 153 -232 341 -443 566 -633 134 -114 189
-177 232 -267 46 -97 54 -149 60 -385 7 -286 35 -471 85 -569 25 -51 110 -127
173 -156 73 -35 115 -33 169 8 138 105 174 296 113 599 -25 122 -11 188 40
188 16 0 34 -15 58 -48 103 -143 306 -222 411 -160 53 32 78 79 74 146 -2 28
-2 52 -2 52 1 0 14 -25 29 -55 36 -73 117 -160 178 -192 58 -29 112 -27 183 7
166 81 242 294 215 604 -6 72 -14 148 -17 169 -6 32 -4 37 10 31 10 -4 14 -13
11 -23 -4 -12 6 -19 37 -29 24 -8 110 -42 193 -77 197 -83 253 -99 350 -99
185 -2 241 69 239 299 -3 241 -62 392 -182 462 -42 25 -56 27 -211 34 -177 8
-282 25 -391 65 -133 48 -180 73 -191 101 -10 27 -23 250 -34 593 -7 211 -19
283 -62 362 -25 46 -79 104 -117 125 -16 9 -16 12 3 44 11 19 32 70 48 114 25
74 27 91 27 230 -1 200 -14 247 -92 325 -73 73 -162 116 -351 170 -175 50
-226 76 -311 160 -115 113 -168 247 -195 487 -39 346 -181 500 -414 448z
m-1040 -4261 c29 -57 50 -106 48 -108 -2 -3 -33 50 -68 117 -36 67 -57 116
-48 109 9 -8 39 -61 68 -118z"/>
<path d="M11298 71029 c-68 -16 -157 -68 -226 -134 -63 -59 -86 -95 -287 -442
-691 -1194 -1109 -1947 -1191 -2145 -54 -133 -115 -174 -197 -132 -18 9 -63
40 -102 68 -91 67 -138 97 -205 131 -30 15 -75 44 -100 65 -118 98 -306 198
-426 226 -136 32 -295 10 -434 -61 -178 -90 -389 -295 -495 -481 -73 -128
-100 -220 -100 -345 0 -102 1 -107 39 -185 64 -128 184 -235 363 -320 40 -18
150 -61 245 -93 95 -33 223 -80 284 -105 61 -25 160 -57 221 -70 131 -29 192
-56 232 -102 52 -58 50 -123 -4 -219 -12 -22 -50 -103 -83 -180 -148 -343
-325 -697 -447 -895 -30 -47 -97 -144 -149 -216 -148 -200 -238 -389 -282
-594 -28 -128 -26 -398 5 -540 58 -274 176 -521 301 -634 58 -53 140 -88 205
-90 47 -1 60 4 111 39 76 52 144 138 198 250 64 131 91 220 136 442 86 422
205 812 385 1268 122 308 321 748 358 794 7 8 31 23 55 33 68 31 116 14 291
-102 179 -119 293 -211 429 -344 423 -414 664 -917 744 -1556 17 -139 17 -676
0 -825 -87 -748 -309 -1495 -712 -2400 -68 -153 -78 -208 -46 -257 41 -62 174
-94 329 -77 164 17 358 74 496 143 152 77 355 246 481 401 352 431 613 1202
681 2012 17 212 7 695 -20 893 -97 709 -344 1351 -768 1995 -170 258 -380 530
-580 752 l-74 81 228 90 c950 375 2168 737 3458 1027 321 71 454 123 655 255
120 79 288 245 354 352 226 366 233 844 20 1459 -57 164 -171 431 -216 506
-47 78 -139 168 -193 189 -105 40 -176 3 -335 -174 -55 -62 -181 -195 -278
-296 -1049 -1086 -2198 -1934 -3509 -2590 -237 -118 -597 -283 -666 -306 -47
-15 -96 -7 -132 22 -26 20 -27 25 -22 80 5 62 20 92 715 1533 381 791 485
1023 566 1270 86 263 87 378 2 471 -32 35 -53 48 -96 59 -60 16 -154 18 -212
4z"/>
<path d="M88025 59558 c-123 -56 -201 -122 -244 -206 -43 -85 -44 -223 -3
-342 11 -30 39 -95 62 -145 69 -148 242 -556 330 -775 404 -1010 668 -1895
844 -2830 76 -402 128 -890 156 -1450 13 -264 13 -1066 0 -1330 -35 -719 -122
-1524 -215 -2011 -47 -244 -51 -289 -30 -373 43 -170 134 -326 273 -465 141
-143 276 -235 568 -387 228 -120 382 -167 642 -199 133 -17 143 -17 167 -1 58
38 58 89 0 467 -207 1340 -363 2645 -460 3849 -33 420 -33 424 -11 449 10 11
39 27 65 35 58 20 788 136 850 136 61 0 107 -29 131 -83 13 -28 78 -418 195
-1162 133 -846 181 -1130 196 -1161 35 -72 114 -150 184 -185 60 -29 70 -31
147 -27 51 3 96 11 116 22 l33 17 -6 147 c-35 895 -89 1519 -196 2247 -17 116
-32 222 -32 237 -1 37 26 64 82 82 69 23 561 99 603 93 52 -7 94 -40 112 -90
14 -37 74 -406 332 -2042 30 -192 62 -372 71 -400 23 -71 82 -128 157 -150 47
-14 83 -16 189 -11 148 6 163 13 199 96 17 38 19 58 13 130 -28 380 -169 1506
-260 2075 -30 190 -55 366 -55 392 0 64 29 109 83 133 23 10 132 32 242 50
1011 158 1138 180 1200 210 128 61 232 208 290 406 48 164 59 266 59 549 1
224 -2 270 -18 330 -61 230 -175 335 -359 335 -74 0 -251 -39 -437 -95 -47
-14 -188 -41 -315 -61 -139 -21 -267 -47 -323 -65 -114 -36 -312 -81 -490
-110 -152 -25 -169 -22 -197 37 -16 35 -165 903 -165 964 0 50 36 108 82 132
38 20 56 23 148 22 86 -1 127 -8 225 -35 354 -98 629 -1 762 268 32 64 39 89
41 153 9 183 -50 351 -157 453 -86 82 -172 120 -356 158 -600 122 -1243 335
-2035 673 -240 103 -257 106 -304 59 -36 -36 -51 -87 -51 -178 0 -71 4 -88 36
-155 75 -157 281 -365 524 -530 156 -106 226 -182 296 -326 l49 -100 125 -787
c69 -433 125 -801 125 -820 0 -48 -32 -99 -76 -122 -51 -27 -581 -111 -636
-101 -65 12 -76 29 -98 152 -26 147 -82 392 -192 839 l-91 370 6 105 c4 79 10
115 26 145 69 131 -38 315 -308 531 -231 185 -320 227 -481 228 -94 1 -138
-23 -171 -90 -19 -40 -21 -57 -16 -127 9 -140 121 -490 297 -932 171 -430 289
-885 316 -1226 6 -81 5 -86 -18 -114 -23 -26 -32 -29 -119 -36 -52 -4 -222
-27 -379 -52 -313 -50 -335 -50 -428 -3 -54 28 -102 76 -132 137 -25 49 -102
260 -97 266 2 2 12 -17 22 -42 28 -74 27 -46 -1 36 -56 163 -135 455 -168 622
-44 219 -68 316 -161 637 -40 140 -96 361 -124 490 -61 284 -131 569 -173 707
l-31 102 27 59 c91 204 -53 479 -434 829 -212 195 -362 279 -518 289 -65 4
-85 1 -127 -18z"/>
<path d="M5261 59145 c-244 -69 -373 -275 -401 -641 -14 -179 -5 -284 31 -359
36 -77 44 -151 24 -235 -8 -36 -29 -148 -46 -250 -17 -102 -48 -267 -70 -367
-55 -252 -86 -446 -99 -609 -13 -157 -36 -254 -110 -444 -59 -153 -77 -214
-90 -307 -29 -208 64 -381 255 -473 112 -54 204 -77 400 -101 430 -51 893
-135 1500 -274 l250 -57 101 10 c243 27 379 122 437 307 18 58 22 93 22 205
l-1 135 -48 104 c-73 158 -98 268 -99 426 -2 150 16 250 89 520 28 103 63 273
89 431 47 287 64 343 130 409 90 89 219 113 410 76 61 -11 396 -66 745 -121
1265 -200 2017 -320 2105 -336 113 -20 287 -15 360 12 33 12 69 36 106 73 76
76 98 136 111 306 21 274 -16 452 -118 565 -72 79 -138 104 -337 125 -434 47
-1248 159 -1932 266 -370 58 -370 58 -1030 144 -888 116 -1672 231 -1825 266
-143 33 -282 79 -345 115 -97 54 -243 85 -415 90 -109 3 -158 0 -199 -11z
m457 -1130 c86 -14 167 -33 180 -41 13 -9 31 -32 39 -52 14 -34 14 -55 -6
-247 -26 -251 -71 -564 -112 -793 -44 -245 -98 -492 -115 -525 -30 -56 -97
-68 -246 -42 -151 27 -226 74 -249 157 -13 49 2 379 27 583 20 168 73 435 119
600 20 72 43 158 50 191 25 116 80 192 138 194 10 0 89 -11 175 -25z m1040
-165 c213 -38 302 -96 302 -195 0 -82 -103 -693 -145 -865 -53 -213 -80 -336
-105 -480 -20 -118 -35 -149 -84 -180 -62 -38 -123 -44 -222 -20 -49 12 -120
33 -158 48 -146 57 -147 75 -7 946 56 351 108 650 115 665 21 40 51 62 108 82
66 23 62 23 196 -1z"/>
<path d="M4450 54504 c-214 -57 -310 -257 -296 -614 22 -546 20 -596 -39 -975
-19 -121 -42 -296 -50 -390 -29 -316 -69 -517 -129 -649 -80 -175 -112 -311
-103 -434 21 -275 293 -421 787 -422 241 0 760 -43 1160 -95 946 -124 1797
-361 2475 -690 575 -278 874 -686 984 -1337 30 -180 75 -282 137 -310 36 -17
100 6 176 62 76 56 123 112 205 243 321 518 333 1002 38 1472 -156 248 -333
396 -690 576 -438 220 -1031 406 -1882 589 -327 71 -373 91 -428 184 -48 82
-50 129 -16 341 17 105 37 267 46 360 19 212 38 342 65 442 12 43 32 121 45
173 33 125 76 212 140 277 47 47 55 62 75 135 109 402 -85 642 -587 727 -178
31 -446 86 -658 136 -108 25 -381 75 -635 115 -245 39 -483 77 -530 85 -106
19 -218 18 -290 -1z m778 -1048 c42 -22 80 -70 88 -113 5 -24 -6 -119 -29
-272 -20 -130 -39 -274 -42 -321 -19 -277 -80 -588 -130 -664 -44 -66 -173
-92 -332 -65 -144 25 -154 36 -193 199 -42 180 -37 396 16 647 14 65 36 185
50 267 28 169 51 233 101 277 64 56 131 70 315 64 88 -2 135 -8 156 -19z m924
-141 c81 -13 160 -31 175 -39 37 -19 79 -64 92 -99 14 -36 14 -159 0 -217 -6
-25 -46 -266 -88 -535 -49 -308 -85 -505 -96 -528 -31 -66 -51 -73 -269 -93
-102 -10 -240 30 -288 83 -25 28 -48 87 -48 126 0 62 170 1102 190 1161 25 76
55 119 100 145 45 26 55 26 232 -4z"/>
<path d="M7875 46294 c-95 -24 -145 -60 -145 -105 0 -16 11 -55 24 -87 77
-183 175 -620 280 -1247 95 -567 137 -944 190 -1685 20 -274 66 -1025 66
-1072 0 -4 -10 -8 -21 -8 -12 0 -41 -19 -64 -42 -34 -35 -45 -54 -54 -100
l-12 -58 -32 24 c-83 62 -197 96 -322 96 -69 0 -124 -7 -262 -31 -40 -7 -75
-10 -79 -6 -15 15 10 58 85 145 195 228 309 453 361 714 24 120 25 168 4 237
-20 68 -96 150 -140 152 -118 5 -154 -27 -260 -235 -190 -371 -374 -676 -520
-861 -46 -57 -48 -58 -55 -35 -4 14 -35 203 -69 420 -53 334 -66 402 -88 443
-30 55 -89 96 -151 104 -71 10 -148 -57 -172 -148 -11 -42 -6 -86 60 -502 79
-498 79 -506 25 -561 -35 -35 -55 -39 -368 -91 -297 -49 -337 -62 -423 -140
-27 -23 -58 -59 -68 -79 -11 -20 -22 -36 -25 -36 -14 0 -106 645 -120 837 -27
391 43 642 197 710 36 16 301 61 1043 178 547 85 1015 160 1040 166 135 31
196 177 171 410 -35 328 -153 507 -320 486 -109 -13 -494 -81 -606 -107 -305
-69 -513 -99 -910 -131 -156 -13 -428 -8 -626 11 -102 10 -111 9 -223 -19
-264 -67 -423 -188 -497 -379 -31 -80 -38 -271 -15 -396 31 -160 61 -239 117
-303 78 -88 135 -165 164 -218 23 -45 25 -57 25 -195 0 -429 62 -1006 156
-1450 7 -34 6 -33 -86 53 -118 111 -223 190 -317 239 -61 31 -84 38 -131 38
-143 -1 -244 -106 -294 -308 -19 -74 -22 -115 -22 -282 0 -164 3 -200 17 -227
45 -84 154 -151 342 -207 222 -67 260 -80 342 -122 144 -74 276 -180 376 -301
47 -58 59 -81 73 -139 33 -141 16 -317 -42 -437 -20 -43 -24 -65 -24 -148 0
-215 68 -355 203 -422 129 -63 237 -63 511 -2 111 25 269 63 351 85 453 121
540 138 1215 245 366 58 706 110 755 115 166 19 245 82 245 198 0 73 -37 227
-72 299 -35 72 -108 145 -172 174 -24 10 -74 23 -111 28 -64 9 -125 1 -924
-125 -824 -131 -860 -136 -966 -130 -132 6 -215 25 -303 69 -80 39 -175 130
-216 206 -20 37 -65 194 -146 503 -64 246 -115 448 -113 448 2 0 14 -7 26 -14
32 -22 153 -38 222 -31 33 3 177 24 320 47 290 45 349 46 391 7 14 -13 32 -36
39 -50 8 -14 39 -183 70 -375 30 -192 62 -371 71 -399 30 -94 97 -178 187
-234 32 -20 48 -23 102 -19 117 7 160 66 159 213 0 80 -4 100 -37 178 -52 122
-113 304 -142 417 -26 102 -51 277 -42 286 9 10 165 -96 262 -178 214 -180
377 -375 551 -657 l71 -116 77 1 c101 2 157 34 201 114 26 49 30 66 33 163 4
105 4 108 -30 180 -64 133 -199 292 -425 499 -144 131 -163 159 -130 186 19
16 261 35 352 28 185 -16 372 -86 432 -163 159 -204 325 -768 518 -1768 68
-354 85 -396 210 -520 137 -138 320 -213 498 -203 243 12 262 211 57 578 -136
242 -275 663 -443 1345 -104 419 -141 596 -133 629 4 18 18 32 38 40 28 12 42
11 117 -9 688 -185 1242 -780 1671 -1795 29 -69 70 -165 92 -214 21 -48 46
-109 55 -134 31 -94 128 -212 172 -212 33 0 98 57 145 128 78 118 138 264 173
424 27 124 24 387 -6 528 -66 314 -225 645 -476 995 -117 164 -172 225 -293
326 -288 240 -717 473 -1320 715 -101 41 -230 88 -286 105 -124 38 -146 50
-203 102 -82 76 -88 96 -87 302 0 99 10 302 22 450 12 149 29 373 37 499 9
133 28 302 45 405 31 186 60 404 82 611 18 171 18 754 0 875 -50 334 -145 560
-294 701 -54 52 -206 162 -278 202 -118 66 -286 118 -450 141 -95 13 -249 21
-275 15z"/>
<path d="M94675 45793 c-211 -11 -491 -61 -568 -100 -139 -69 -235 -259 -281
-553 -49 -312 -80 -1015 -57 -1295 4 -49 7 -91 6 -93 -1 -1 -19 25 -39 58 -84
135 -211 242 -332 280 -105 32 -435 97 -820 160 -203 34 -402 68 -443 77 -99
21 -200 13 -274 -22 -64 -30 -148 -115 -189 -191 -60 -112 -92 -356 -69 -537
10 -81 8 -99 -14 -207 -76 -359 -453 -1772 -616 -2310 -217 -713 -438 -1395
-522 -1610 -25 -63 -59 -152 -76 -197 -27 -76 -72 -167 -192 -388 -42 -78 -44
-83 -47 -185 -10 -273 109 -489 362 -660 109 -73 189 -110 513 -235 400 -155
386 -149 446 -189 63 -42 167 -148 167 -170 0 -8 -21 -31 -46 -52 -78 -64
-262 -272 -298 -337 -75 -136 -106 -317 -87 -514 30 -302 118 -545 278 -770
68 -96 319 -363 340 -363 7 0 37 25 67 55 45 46 76 98 193 327 228 445 444
806 752 1258 88 129 231 348 317 485 503 800 863 1339 1243 1860 153 210 252
321 292 328 13 3 51 10 84 16 160 29 303 150 393 331 60 121 77 190 68 272 -8
81 -46 156 -120 237 -164 178 -357 718 -445 1241 -66 388 -76 530 -76 1095 0
518 3 594 46 1020 39 395 99 800 180 1235 75 401 81 440 74 494 -16 129 -57
158 -210 149z m-2050 -2558 c303 -92 330 -105 374 -185 32 -57 39 -154 17
-251 -9 -41 -28 -141 -42 -224 -78 -458 -214 -1011 -270 -1102 -35 -56 -98
-93 -158 -93 -49 0 -53 1 -444 123 -331 103 -352 114 -373 190 -15 55 -8 86
92 417 49 162 105 374 124 470 105 511 162 661 274 720 62 33 107 26 406 -65z
m1215 -186 c11 -269 29 -542 40 -611 l7 -48 -43 0 c-57 0 -83 -11 -122 -51
-54 -55 -81 -127 -108 -287 -48 -289 -114 -596 -180 -837 -40 -144 -172 -584
-509 -1695 -210 -690 -227 -751 -227 -821 0 -90 17 -136 65 -174 l34 -28 -70
-53 c-38 -29 -157 -132 -263 -228 -106 -97 -195 -176 -198 -176 -3 0 5 16 19
35 50 74 53 114 21 225 -9 30 -16 91 -16 135 0 75 6 97 90 345 444 1299 875
2777 1120 3843 56 244 110 387 193 514 41 63 126 157 134 149 2 -2 8 -109 13
-237z m269 -1926 c144 -431 211 -691 213 -832 2 -66 -1 -73 -46 -149 -120
-197 -390 -520 -856 -1024 -69 -74 -126 -134 -128 -133 -1 1 35 107 82 236
268 745 513 1569 622 2087 10 46 21 77 25 70 4 -7 43 -122 88 -255z m-2175
-517 c346 -104 379 -121 426 -211 46 -91 45 -95 -187 -861 -204 -675 -211
-693 -257 -758 -83 -116 -197 -186 -305 -186 -27 0 -93 14 -147 30 -126 39
-415 182 -462 229 -74 73 -96 187 -64 331 15 69 203 695 387 1296 47 151 87
205 166 224 60 15 129 1 443 -94z"/>
<path d="M92428 42751 c-87 -18 -265 -162 -353 -285 -87 -123 -159 -295 -193
-460 -22 -105 -19 -144 14 -157 45 -17 85 -10 208 37 144 56 223 81 291 94 28
6 107 28 176 50 140 45 201 86 240 162 44 87 44 226 -1 372 -43 138 -110 188
-255 192 -49 2 -107 -1 -127 -5z"/>
<path d="M91441 40421 c-42 -12 -59 -50 -85 -191 -80 -435 -46 -817 89 -1005
80 -112 158 -157 275 -159 141 -1 236 50 303 165 61 104 75 298 29 403 -31 69
-201 323 -291 435 -45 54 -110 143 -145 197 -70 109 -117 165 -138 163 -7 -1
-24 -4 -37 -8z"/>
<path d="M10588 45171 c-72 -46 -119 -120 -242 -377 -333 -702 -617 -1224
-875 -1607 -144 -215 -147 -221 -177 -312 -38 -113 -40 -278 -5 -378 26 -78
104 -200 156 -246 72 -63 230 -79 320 -33 90 46 179 141 247 263 77 138 394
908 546 1325 137 377 290 865 323 1033 14 75 8 196 -14 237 -36 71 -123 124
-202 124 -17 0 -52 -13 -77 -29z"/>
<path d="M89341 44825 c-130 -29 -249 -131 -321 -278 -52 -105 -70 -202 -70
-370 0 -140 7 -203 42 -358 l21 -97 -22 -128 c-90 -544 -702 -2579 -946 -3152
-63 -146 -89 -181 -151 -204 -122 -46 -232 -175 -292 -342 -83 -229 -50 -413
106 -577 66 -71 181 -154 282 -204 30 -15 151 -59 270 -97 341 -111 605 -219
734 -302 120 -77 437 -203 544 -216 223 -28 418 93 569 355 58 101 66 147 70
410 l3 230 164 490 c397 1182 706 2216 916 3058 43 170 60 221 110 324 96 196
153 349 185 502 13 64 13 80 0 144 -21 100 -59 173 -127 239 -64 64 -164 117
-268 143 -36 9 -213 61 -395 117 -196 59 -444 126 -609 164 -154 35 -347 82
-430 105 -233 64 -271 68 -385 44z m528 -1097 c78 -39 111 -81 111 -141 0
-102 -317 -1262 -557 -2037 -168 -543 -484 -1481 -521 -1544 -10 -17 -34 -42
-53 -54 -30 -21 -43 -23 -110 -20 -129 7 -199 62 -207 160 -3 46 12 106 111
433 63 209 291 963 507 1675 215 712 401 1331 412 1375 25 101 50 146 97 174
50 30 123 23 210 -21z m792 -183 c104 -36 158 -112 166 -234 5 -71 0 -96 -76
-391 -255 -981 -546 -1897 -879 -2766 -55 -143 -103 -270 -107 -284 -17 -56
-77 -161 -111 -194 -44 -42 -91 -54 -154 -37 -59 16 -98 39 -124 74 -18 24
-21 42 -20 120 0 84 5 104 48 227 345 971 697 2120 925 3023 65 256 74 283
114 346 43 66 81 101 128 120 33 13 39 13 90 -4z"/>
<path d="M5999 42726 c-134 -36 -269 -185 -269 -297 0 -56 24 -102 80 -152 65
-58 455 -337 489 -350 32 -12 76 -3 84 16 9 25 -75 481 -114 609 -40 136 -150
207 -270 174z"/>
<path d="M6445 40697 c-176 -136 -297 -272 -331 -371 -14 -39 -13 -50 1 -107
32 -126 109 -213 213 -243 77 -21 96 -20 140 8 90 57 161 162 197 291 22 79
32 347 16 398 -18 53 -63 87 -114 86 -36 0 -54 -9 -122 -62z"/>
<path d="M9013 38596 c-99 -32 -150 -106 -140 -202 11 -110 62 -189 316 -490
258 -307 562 -736 796 -1124 85 -140 115 -179 200 -265 110 -111 172 -148 274
-166 117 -21 241 23 369 132 126 105 212 245 253 410 17 67 20 102 16 179 -12
225 -97 347 -423 611 -457 368 -950 710 -1222 848 -129 65 -345 98 -439 67z"/>
<path d="M8011 38557 c-38 -46 -44 -97 -52 -442 -12 -558 -62 -864 -248 -1542
-99 -359 -113 -602 -49 -811 28 -93 92 -214 145 -272 128 -142 358 -218 535
-176 136 32 322 148 378 236 82 127 145 308 169 486 15 102 15 391 1 520 -54
483 -204 993 -424 1440 -147 300 -355 574 -434 574 -5 0 -15 -6 -21 -13z"/>
<path d="M6629 38262 c-49 -32 -99 -104 -140 -202 -13 -30 -72 -136 -132 -234
-268 -441 -407 -715 -487 -954 -88 -265 -90 -395 -8 -562 32 -65 59 -102 119
-162 45 -45 96 -86 121 -97 124 -53 288 -66 397 -32 164 51 297 197 360 395
79 245 110 457 118 788 13 558 -51 907 -191 1036 -39 36 -52 42 -88 42 -24 0
-55 -8 -69 -18z"/>
<path d="M80379 24241 c-62 -20 -128 -62 -175 -113 -76 -80 -1021 -1357 -1044
-1408 -32 -74 -37 -163 -14 -232 26 -79 120 -170 199 -193 125 -37 242 2 412
137 221 175 320 204 459 133 60 -30 1735 -1284 2025 -1515 417 -333 752 -672
932 -941 79 -119 152 -277 178 -384 26 -112 28 -283 4 -400 -70 -339 -329
-776 -653 -1102 -372 -373 -730 -475 -1166 -332 -136 45 -338 148 -493 252
-122 81 -2098 1582 -2358 1791 -220 176 -414 357 -444 414 -25 47 7 121 126
288 106 149 135 216 141 319 6 104 -19 166 -90 230 -69 62 -143 88 -234 83
-135 -9 -244 -93 -434 -338 -259 -334 -1189 -1592 -1215 -1645 -26 -52 -30
-70 -30 -145 0 -109 28 -172 115 -254 77 -74 135 -100 220 -100 123 0 175 37
344 248 121 151 222 252 261 262 48 12 249 -109 412 -248 107 -92 1980 -1565
2233 -1757 270 -204 473 -337 650 -425 245 -122 432 -173 665 -183 459 -19
905 144 1341 493 135 107 408 383 530 534 557 691 823 1287 824 1840 0 390
-130 748 -410 1125 -191 258 -488 557 -815 821 -145 117 -1851 1415 -1932
1470 -136 93 -273 211 -313 272 -60 91 -48 164 65 402 87 182 99 224 93 328
-12 215 -200 340 -409 273z"/>
<path d="M19833 21950 c-520 -44 -1015 -213 -1428 -488 -207 -138 -344 -251
-520 -427 -626 -627 -931 -1363 -901 -2180 26 -724 241 -1379 644 -1965 529
-770 1451 -1448 2082 -1532 77 -10 93 -9 170 11 200 50 493 237 709 451 99 98
134 166 139 267 4 60 0 80 -20 125 -54 116 -131 167 -270 175 -67 4 -126 -2
-303 -33 -206 -36 -233 -38 -425 -39 -226 0 -300 11 -460 67 -373 132 -782
499 -1002 898 -248 451 -282 1050 -93 1625 124 378 337 728 662 1087 540 597
1208 898 1992 898 522 0 945 -150 1297 -458 233 -204 379 -447 459 -760 44
-177 56 -283 65 -582 7 -249 10 -293 29 -350 59 -183 223 -275 365 -206 121
59 400 402 495 607 61 133 75 231 50 348 -37 173 -326 622 -638 991 -140 166
-486 512 -636 636 -345 285 -690 495 -1050 637 -350 138 -652 195 -1085 202
-124 2 -271 0 -327 -5z"/>
<path d="M73716 17669 c-345 -50 -917 -361 -1301 -706 -343 -308 -565 -696
-641 -1118 -25 -141 -26 -414 0 -550 60 -323 219 -624 465 -879 289 -299 619
-464 1066 -532 98 -15 176 -19 425 -18 349 0 491 14 935 89 455 77 728 101
943 85 363 -28 566 -141 744 -415 128 -197 165 -388 113 -590 -40 -156 -170
-356 -321 -492 -222 -200 -469 -326 -722 -369 -144 -25 -416 -15 -534 19 -184
53 -274 109 -468 294 -147 139 -205 185 -290 229 -49 26 -65 29 -151 29 -89 0
-99 -2 -144 -30 -63 -39 -111 -106 -131 -184 -45 -178 54 -371 495 -961 180
-241 291 -357 381 -399 99 -46 192 -57 331 -36 417 60 796 212 1194 476 547
364 928 812 1090 1278 109 317 124 676 40 988 -125 469 -458 953 -824 1197
-501 334 -1052 373 -2306 161 -374 -63 -486 -75 -684 -75 -262 0 -467 48 -609
143 -87 58 -147 130 -203 242 -166 335 -16 705 400 985 258 173 536 211 833
113 99 -32 160 -72 308 -196 189 -160 306 -203 445 -163 77 23 154 98 180 175
26 80 17 170 -27 263 -79 165 -615 804 -759 904 -39 27 -138 55 -189 53 -14
-1 -52 -5 -84 -10z"/>
<path d="M25986 17639 c-62 -10 -132 -53 -173 -107 -82 -108 -65 -235 52 -391
27 -35 142 -159 256 -277 114 -117 224 -233 244 -258 l37 -46 -25 -52 c-91
-186 -1007 -1519 -1975 -2873 -398 -556 -493 -683 -593 -788 l-66 -69 -59 7
c-76 10 -204 47 -429 126 -166 58 -187 63 -265 64 -76 0 -91 -3 -138 -29 -105
-59 -163 -155 -170 -284 -4 -77 -2 -87 27 -146 50 -102 113 -152 397 -313 137
-77 375 -209 529 -293 258 -140 410 -235 785 -490 282 -192 385 -236 533 -228
92 5 140 25 196 80 52 50 75 111 76 194 0 140 -87 263 -310 435 -200 154 -281
242 -306 334 -13 47 6 112 68 232 58 112 1607 2615 1611 2603 2 -4 -9 -95 -22
-201 -14 -107 -98 -750 -186 -1429 -88 -679 -188 -1444 -222 -1700 -53 -397
-62 -488 -62 -625 -1 -156 0 -162 28 -222 31 -68 95 -135 151 -159 19 -8 60
-14 92 -14 182 1 471 183 1563 986 239 176 525 385 635 464 110 79 387 281
615 450 482 355 560 412 560 406 0 -2 -22 -40 -49 -83 -149 -241 -1420 -2361
-1472 -2455 -113 -207 -150 -248 -224 -248 -15 0 -93 37 -178 85 -172 96 -243
124 -338 132 -102 9 -168 -15 -240 -86 -84 -84 -107 -176 -74 -288 52 -174
143 -248 573 -463 363 -181 488 -256 1002 -611 191 -132 411 -266 533 -325 85
-41 109 -48 176 -52 103 -6 161 18 235 99 103 111 121 224 56 356 -25 49 -55
87 -128 156 -232 222 -391 385 -397 410 -11 41 131 321 488 962 460 828 1375
2393 1568 2681 103 154 207 274 274 315 84 52 238 0 564 -190 104 -61 171 -94
208 -101 102 -22 192 10 273 96 64 68 89 123 90 195 0 109 -52 198 -172 293
-37 30 -235 155 -440 278 -205 124 -431 263 -503 310 -252 163 -336 198 -478
198 -102 0 -178 -23 -295 -88 -67 -37 -3218 -2279 -3273 -2328 -30 -27 -29
-47 -9 226 6 80 27 285 46 455 49 437 402 3252 414 3300 12 52 12 178 -1 234
-25 111 -103 225 -203 295 -33 24 -131 83 -216 131 -199 111 -277 163 -542
362 -119 89 -253 187 -298 218 -175 119 -306 164 -424 144z"/>
<path d="M68641 14445 c-95 -21 -165 -46 -501 -175 -168 -65 -408 -155 -535
-200 -285 -101 -370 -144 -453 -227 -89 -88 -134 -197 -156 -383 -3 -25 -33
-679 -66 -1455 -103 -2403 -108 -2516 -113 -2522 -8 -7 -165 136 -447 408
-269 261 -2032 2027 -2330 2335 -158 163 -182 184 -250 217 -86 42 -187 61
-269 51 -80 -10 -161 -36 -329 -108 -183 -79 -358 -136 -657 -216 -416 -112
-523 -153 -619 -241 -32 -29 -66 -73 -82 -105 -73 -150 4 -327 164 -374 68
-20 230 -23 367 -6 246 30 553 59 567 53 8 -3 26 -29 40 -59 78 -164 540
-1618 879 -2762 72 -243 175 -589 229 -771 142 -471 200 -706 200 -804 0 -31
-8 -44 -64 -96 -35 -33 -109 -89 -165 -125 -56 -36 -149 -95 -206 -132 -126
-81 -188 -141 -222 -215 -52 -114 -13 -265 94 -363 71 -65 129 -84 242 -78 77
4 103 11 246 68 88 35 327 135 530 223 430 185 565 238 788 306 464 143 610
205 709 302 76 74 108 142 108 230 0 194 -176 310 -425 279 -45 -6 -156 -29
-246 -51 -183 -46 -315 -59 -389 -39 -62 17 -110 71 -164 183 -32 68 -623
1660 -1074 2895 -5 15 367 -361 1753 -1766 544 -552 1016 -1026 1050 -1053 33
-27 94 -67 134 -87 68 -34 82 -37 155 -37 64 0 90 5 122 22 79 42 125 113 157
243 47 191 84 673 102 1340 14 522 26 906 35 1145 10 264 24 704 36 1163 4
139 10 249 14 245 4 -4 233 -597 510 -1318 276 -720 530 -1377 565 -1460 77
-182 87 -235 53 -285 -20 -30 -46 -44 -168 -96 -196 -81 -245 -109 -313 -176
-90 -89 -120 -184 -92 -291 31 -121 111 -194 242 -223 139 -31 246 -4 553 141
460 217 621 279 1060 415 146 45 344 111 440 147 407 152 504 232 503 413 0
100 -30 178 -92 240 -89 89 -211 108 -436 66 -166 -30 -369 -56 -441 -56 -37
0 -58 5 -70 18 -43 42 -334 701 -664 1502 -320 777 -844 2109 -922 2345 -74
225 -97 408 -59 471 42 69 228 174 465 264 192 72 253 116 295 210 44 98 18
259 -55 340 -67 74 -202 105 -333 75z"/>
<path d="M36165 12365 c-780 -114 -1325 -662 -1441 -1447 -23 -155 -15 -440
16 -583 78 -365 268 -726 594 -1130 104 -129 211 -249 412 -460 273 -287 388
-425 519 -619 97 -144 144 -237 181 -361 36 -120 39 -308 6 -427 -139 -510
-531 -719 -1085 -579 -433 109 -746 352 -922 715 -69 141 -94 234 -102 366 -4
90 -1 131 27 290 57 321 43 462 -52 566 -58 62 -117 88 -203 88 -168 0 -285
-111 -406 -385 -97 -220 -269 -704 -314 -885 -38 -149 -34 -258 13 -358 106
-226 512 -568 921 -775 440 -224 910 -353 1336 -368 650 -22 1181 224 1544
716 206 279 374 696 412 1021 16 143 6 385 -21 515 -44 210 -122 401 -248 609
-173 284 -450 627 -797 986 -388 401 -533 583 -645 809 -131 265 -142 446 -39
660 79 163 231 284 417 332 264 67 658 -34 907 -235 134 -108 234 -261 291
-451 32 -107 36 -208 15 -392 -26 -227 2 -349 101 -438 144 -130 346 -85 462
102 66 108 283 835 316 1062 22 147 -19 242 -162 377 -319 302 -974 600 -1483
675 -154 22 -429 24 -570 4z"/>
<path d="M58610 10765 c-454 -78 -845 -151 -870 -160 -134 -54 -210 -160 -210
-294 0 -88 25 -148 89 -211 84 -83 134 -99 421 -130 128 -13 198 -35 256 -79
57 -43 87 -91 108 -175 18 -75 376 -2184 410 -2421 111 -769 96 -1313 -47
-1653 -163 -386 -614 -636 -1312 -727 -141 -18 -428 -21 -535 -5 -206 31 -400
112 -529 222 -196 166 -360 484 -446 866 -23 102 -443 2654 -479 2907 -31 220
-40 323 -40 462 -1 139 0 143 24 168 33 33 117 61 264 90 182 35 282 79 346
152 133 151 80 388 -108 480 -51 25 -70 28 -173 32 -152 4 -202 -3 -1348 -204
-1024 -180 -1010 -176 -1090 -256 -134 -134 -129 -393 10 -513 84 -71 179 -81
414 -41 55 10 159 18 232 19 120 1 133 -1 146 -19 38 -51 88 -247 112 -439 19
-150 389 -2641 421 -2836 106 -644 237 -988 488 -1282 210 -246 557 -449 926
-543 238 -60 328 -70 685 -70 287 0 352 3 495 23 1139 156 1830 530 2146 1162
140 280 210 605 221 1035 8 320 -12 583 -77 1010 -63 406 -342 2088 -370 2225
-34 169 -51 336 -41 400 19 114 86 166 335 256 193 71 273 129 328 242 75 152
15 322 -141 402 -54 27 -146 50 -196 49 -22 0 -411 -65 -865 -144z"/>
<path d="M44257 10510 c-94 -24 -162 -81 -232 -195 -23 -38 -111 -200 -195
-360 -84 -159 -174 -326 -200 -370 -27 -44 -104 -179 -173 -300 -105 -186
-460 -788 -1585 -2690 -91 -154 -261 -451 -377 -660 -328 -589 -473 -815 -531
-829 -16 -3 -117 -10 -224 -15 -264 -12 -356 -37 -438 -119 -52 -52 -75 -105
-80 -183 -5 -82 22 -153 80 -205 83 -75 145 -88 613 -129 948 -83 1186 -112
1435 -175 114 -28 163 -33 221 -21 139 30 230 150 233 306 1 58 -4 80 -27 126
-57 116 -169 188 -447 284 -146 51 -200 78 -200 102 0 105 375 924 645 1408
154 275 162 287 183 281 9 -3 105 -10 212 -16 341 -19 541 -44 836 -104 66
-13 151 -27 189 -31 39 -4 75 -12 81 -17 14 -11 14 -10 119 -658 47 -289 110
-673 140 -853 31 -181 53 -332 50 -337 -2 -4 -44 -11 -92 -14 -202 -16 -379
-38 -437 -56 -120 -38 -210 -123 -237 -225 -28 -101 13 -231 95 -301 109 -94
211 -115 731 -150 284 -19 607 -62 1523 -205 255 -40 432 84 432 304 0 169
-142 284 -415 337 -33 7 -95 23 -137 36 l-77 25 -45 137 c-80 246 -178 609
-262 972 -38 165 -442 2025 -870 4005 -120 557 -141 639 -181 718 -31 62 -102
133 -156 157 -51 23 -149 32 -200 20z m-354 -2110 c79 -341 170 -797 192 -966
l6 -50 -58 7 c-32 4 -96 8 -143 8 -98 2 -239 20 -425 55 -71 14 -149 26 -172
26 -48 0 -49 1 -29 33 8 12 126 231 262 487 328 616 318 599 320 597 1 -1 23
-90 47 -197z"/>
<path d="M50125 7530 c-259 -41 -482 -155 -666 -339 -233 -233 -349 -512 -349
-836 0 -319 118 -604 345 -830 153 -153 334 -257 542 -311 121 -32 336 -43
463 -25 444 65 816 379 955 806 92 284 67 623 -66 887 -122 241 -348 455 -592
561 -141 60 -268 87 -432 92 -77 2 -167 0 -200 -5z"/>
</g>
</svg>
